<svg xmlns="http://www.w3.org/2000/svg" xmlns:xlink="http://www.w3.org/1999/xlink" xmlns:inkscape="http://www.inkscape.org/namespaces/inkscape" version="1.1" width="255" height="133" viewBox="0 0 255 133">
<defs>
<path id="font_1_1" d="M.45999146 .31976319C.45999146 .39982606 .45498658 .47988893 .41999818 .5539398 .37399293 .65000918 .2919922 .6660156 .25 .6660156 .18998719 .6660156 .116989139 .64001467 .07598877 .54693606 .04399109 .47789 .038986207 .39982606 .038986207 .31976319 .038986207 .24472046 .042999269 .15464783 .083999637 .07859802 .1269989-.0024719239 .19999695-.022460938 .24899292-.022460938 .30299378-.022460938 .3789978-.0014648438 .4229889 .09359741 .45498658 .16265869 .45999146 .2407074 .45999146 .31976319M.24899292-.00047302247C.20999146-.00047302247 .15098572 .024551392 .1329956 .12062073 .12199402 .18066406 .12199402 .2727356 .12199402 .3317871 .12199402 .39582826 .12199402 .46188355 .12998963 .5159149 .14898682 .63500979 .22399903 .64401248 .24899292 .64401248 .28199769 .64401248 .34799195 .6259918 .36698915 .52693179 .3769989 .47088624 .3769989 .39482118 .3769989 .3317871 .3769989 .25672914 .3769989 .18867493 .3659973 .12461853 .35099793 .029556275 .2939911-.00047302247 .24899292-.00047302247Z"/>
<path id="font_2_1" d="M.19198609 .052993776C.19198609 .08198547 .16799927 .10598755 .13899231 .10598755 .10998535 .10598755 .085998538 .08198547 .085998538 .052993776 .085998538 .023986817 .10998535 0 .13899231 0 .16799927 0 .19198609 .023986817 .19198609 .052993776Z"/>
<path id="font_1_3" d="M.1269989 .07699585 .23298645 .18003845C.3889923 .31811524 .44898988 .3721466 .44898988 .47216798 .44898988 .5860901 .35899354 .6660156 .23699951 .6660156 .12399292 .6660156 .049987794 .57411196 .049987794 .48516847 .049987794 .4291687 .099990848 .4291687 .102996829 .4291687 .11999512 .4291687 .15499878 .44117738 .15499878 .48217774 .15499878 .5081787 .13699341 .5341797 .101989749 .5341797 .09399414 .5341797 .09199524 .5341797 .08898926 .5331726 .11199951 .59806826 .1659851 .63500979 .22399903 .63500979 .31498719 .63500979 .35798646 .5541382 .35798646 .47216798 .35798646 .39215089 .30799867 .31311036 .25299073 .25108338L.06098938 .036987306C.049987794 .025985718 .049987794 .023986817 .049987794 0H.42099L.44898988 .17404175H.42399598C.4189911 .14402771 .4119873 .1000061 .4019928 .084991458 .394989 .07699585 .32899476 .07699585 .30699159 .07699585H.1269989Z"/>
<path id="font_1_5" d="M.44898988 .20022583C.44898988 .3193512 .36698915 .41944886 .25898744 .41944886 .21099854 .41944886 .16799927 .40345765 .13198853 .36842347V.5637665C.1519928 .5577698 .18499756 .55078127 .21699524 .55078127 .33999635 .55078127 .4099884 .6417694 .4099884 .6547699 .4099884 .6607666 .40699769 .6657715 .3999939 .6657715 .39898683 .6657715 .39698792 .6657715 .3919983 .66278079 .37199403 .6537781 .32299806 .6337738 .2559967 .6337738 .21598816 .6337738 .16999817 .6407776 .12298584 .6617737 .114990238 .66477969 .11299133 .66477969 .11099243 .66477969 .100997928 .66477969 .100997928 .6567688 .100997928 .6407776V.34439088C.100997928 .32637025 .100997928 .31835938 .114990238 .31835938 .12199402 .31835938 .12399292 .32136537 .12799073 .32736207 .13899231 .3433838 .17599488 .39746095 .25698854 .39746095 .30899049 .39746095 .33399964 .35139466 .34199525 .33337403 .35798646 .29632569 .3600006 .25727845 .3600006 .20722962 .3600006 .17222595 .3600006 .11222839 .33599855 .07035828 .31199647 .031463624 .2749939 .0055389406 .22898865 .0055389406 .1559906 .0055389406 .09899902 .058380128 .08198547 .11723328 .084991458 .1162262 .08799744 .115234378 .09899902 .115234378 .13198853 .115234378 .14898682 .14022827 .14898682 .16423035 .14898682 .18823242 .13198853 .21322632 .09899902 .21322632 .084991458 .21322632 .049987794 .20622254 .049987794 .16023255 .049987794 .07434082 .11898804-.022460938 .23098755-.022460938 .34700013-.022460938 .44898988 .073349 .44898988 .20022583Z"/>
<path id="font_1_7" d="M.47599793 .609375C.4850006 .6213684 .4850006 .62338259 .4850006 .64437869H.24198914C.11999512 .64437869 .117996219 .65737918 .11399841 .67637637H.08898926L.055999757 .4702301H.08099365C.083999637 .48625184 .09298706 .5493469 .10598755 .56137087 .11299133 .5673828 .19099427 .5673828 .20399475 .5673828H.41099549C.3999939 .5513611 .32099916 .4421997 .29899598 .40914918 .20899964 .27394105 .17599488 .1347351 .17599488 .032577516 .17599488 .022567749 .17599488-.022460938 .22200012-.022460938 .2679901-.022460938 .2679901 .022567749 .2679901 .032577516V.08366394C.2679901 .13873291 .2709961 .19381714 .2789917 .24790955 .2829895 .27093507 .29699708 .35707093 .34098817 .41915895L.47599793 .609375Z"/>
<path id="font_1_2" d="M.2939911 .64004519C.2939911 .66400149 .2939911 .6660156 .2709961 .6660156 .20899964 .60227969 .12098694 .60227969 .08898926 .60227969V.57128909C.10899353 .57128909 .16799927 .57128909 .21998596 .5972748V.07902527C.21998596 .042999269 .21699524 .0309906 .1269989 .0309906H.09498596V0C.12998963 .0029907227 .21699524 .0029907227 .25698854 .0029907227 .29699708 .0029907227 .38398744 .0029907227 .4189911 0V.0309906H.3869934C.29699708 .0309906 .2939911 .041992189 .2939911 .07902527V.64004519Z"/>
<path id="font_1_4" d="M.2939911 .16503906V.07800293C.2939911 .041992189 .2919922 .0309906 .21798706 .0309906H.19699097V0C.23799134 .0029907227 .2899933 .0029907227 .33198548 .0029907227 .37399293 .0029907227 .4269867 .0029907227 .46798707 0V.0309906H.44699098C.37298585 .0309906 .37098695 .041992189 .37098695 .07800293V.16503906H.47099305V.19602967H.37098695V.65075686C.37098695 .67074587 .37098695 .6767578 .35499574 .6767578 .34599305 .6767578 .34298707 .6767578 .33499146 .66474917L.027999878 .19602967V.16503906H.2939911M.2999878 .19602967H.055999757L.2999878 .5688019V.19602967Z"/>
<path id="font_1_6" d="M.13198853 .327713V.35173036C.13198853 .6047821 .2559967 .64100649 .30699159 .64100649 .33099366 .64100649 .37298585 .634964 .394989 .6007538 .37998963 .6007538 .33999635 .6007538 .33999635 .5557556 .33999635 .524765 .3639984 .5097656 .38598634 .5097656 .4019928 .5097656 .43199159 .51875308 .43199159 .5577545 .43199159 .6178589 .3880005 .6660156 .30499269 .6660156 .1769867 .6660156 .041992189 .5367584 .041992189 .31570436 .041992189 .048553468 .1579895-.022460938 .25099183-.022460938 .3619995-.022460938 .45700074 .07156372 .45700074 .2036438 .45700074 .33070375 .36799623 .4267578 .25698854 .4267578 .18899536 .4267578 .1519928 .37573243 .13198853 .327713M.25099183 .0055389406C.18798828 .0055389406 .1579895 .06556702 .1519928 .080566409 .13398743 .127594 .13398743 .2076416 .13398743 .22564698 .13398743 .30369569 .1659851 .40374757 .2559967 .40374757 .27198792 .40374757 .31799317 .40374757 .34899903 .34172059 .36698915 .30470277 .36698915 .2536621 .36698915 .20463562 .36698915 .15661621 .36698915 .10658264 .34999085 .0705719 .31999208 .010528564 .27398683 .0055389406 .25099183 .0055389406Z"/>
<path id="font_1_8" d="M.16299439 .4569702C.116989139 .486969 .11299133 .52098086 .11299133 .5379791 .11299133 .598999 .17799378 .64100649 .24899292 .64100649 .32199098 .64100649 .38598634 .58898928 .38598634 .51698306 .38598634 .45996095 .34700013 .4119568 .2869873 .37695313L.16299439 .4569702M.30899049 .36193849C.3809967 .3989563 .42999269 .45095826 .42999269 .51698306 .42999269 .6090088 .34098817 .6660156 .25 .6660156 .1499939 .6660156 .068984989 .59199526 .068984989 .49897767 .068984989 .4809723 .070999149 .43595887 .11299133 .38894654 .12399292 .37695313 .16099549 .35194398 .18598938 .33494569 .12799073 .30592347 .041992189 .24984741 .041992189 .15072632 .041992189 .04458618 .14399719-.022460938 .24899292-.022460938 .3619995-.022460938 .45700074 .06060791 .45700074 .16773987 .45700074 .20379639 .44599916 .24885559 .4079895 .2909088 .3889923 .31193543 .37298585 .3219452 .30899049 .36193849M.20899964 .3199463 .33198548 .24183655C.3600006 .2228241 .40699769 .19277954 .40699769 .13169861 .40699769 .05760193 .33198548 .0055389406 .25 .0055389406 .1639862 .0055389406 .09199524 .067611698 .09199524 .15072632 .09199524 .20880127 .12399292 .27288819 .20899964 .3199463Z"/>
<path id="font_2_2" d="M.33399964 .30233766C.33999635 .32835389 .36299134 .42037965 .43299867 .42037965 .43798829 .42037965 .46199037 .42037965 .48298646 .40734864 .45498658 .402359 .43499757 .37734986 .43499757 .35334779 .43499757 .33735658 .44599916 .31835938 .47299195 .31835938 .49499513 .31835938 .5269928 .3363495 .5269928 .37635804 .5269928 .42837525 .46798707 .4423828 .43399049 .4423828 .37599183 .4423828 .34098817 .38935853 .32899476 .36634828 .3039856 .43237306 .25 .4423828 .22099304 .4423828 .116989139 .4423828 .05999756 .3133545 .05999756 .28834535 .05999756 .27833558 .069992069 .27833558 .07199097 .27833558 .07998657 .27833558 .08299255 .28033448 .084991458 .28933717 .11898804 .39535523 .18499756 .42037965 .21899414 .42037965 .23799134 .42037965 .272995 .4113617 .272995 .35334779 .272995 .32235719 .2559967 .25532533 .21899414 .11528015 .20298767 .053268434 .16799927 .011245728 .12399292 .011245728 .117996219 .011245728 .09498596 .011245728 .07398987 .024276734 .09899902 .029266358 .12098694 .05027771 .12098694 .07827759 .12098694 .105270389 .09899902 .11328125 .083999637 .11328125 .053985597 .11328125 .0289917 .08728027 .0289917 .055267335 .0289917 .009246826 .07899475-.0107421879 .12298584-.0107421879 .18899536-.0107421879 .22499085 .059280397 .22799683 .0652771 .23999024 .028274537 .27598573-.0107421879 .33599855-.0107421879 .43899537-.0107421879 .49598695 .118270877 .49598695 .14328003 .49598695 .1532898 .4869995 .1532898 .48399354 .1532898 .47499085 .1532898 .47299195 .14929199 .47099305 .14228821 .43798829 .03527832 .36999513 .011245728 .33799745 .011245728 .29899598 .011245728 .2829895 .043273927 .2829895 .07727051 .2829895 .09927368 .2889862 .121276859 .2999878 .16529846L.33399964 .30233766Z"/>
<path id="font_2_3" d="M.48599244 .38136292C.48999024 .39537049 .48999024 .39736939 .48999024 .40437318 .48999024 .42237855 .47599793 .43138124 .46099855 .43138124 .45098878 .43138124 .43499757 .42536927 .42599488 .41036988 .42399598 .405365 .41600038 .37435914 .4119873 .35635377 .40499879 .33035279 .397995 .30334474 .3919983 .27633668L.34700013 .09628296C.34298707 .08126831 .2999878 .011245728 .23399353 .011245728 .18299866 .011245728 .17199707 .055267335 .17199707 .0922699 .17199707 .1382904 .18899536 .20030213 .22299195 .28833009 .23899842 .3293457 .24299622 .3403473 .24299622 .36035157 .24299622 .405365 .21099854 .4423828 .16099549 .4423828 .06599426 .4423828 .0289917 .29733277 .0289917 .28833009 .0289917 .27833558 .038986207 .27833558 .040985109 .27833558 .050994874 .27833558 .051986696 .28033448 .056991579 .29634095 .083999637 .3903656 .12399292 .42037965 .1579895 .42037965 .1659851 .42037965 .18299866 .42037965 .18299866 .3883667 .18299866 .36335755 .17298889 .3373413 .1659851 .31834413 .12599182 .21231079 .10798645 .1552887 .10798645 .10827637 .10798645 .019256592 .17098999-.0107421879 .22999573-.0107421879 .2689972-.0107421879 .30299378 .0062561037 .33099366 .03425598 .31799317-.017745972 .30599977-.06674194 .2659912-.11973572 .23999024-.15385437 .20199585-.18309021 .1559906-.18309021 .14199829-.18309021 .09700012-.18005371 .07998657-.14074707 .09599304-.14074707 .10899353-.14074707 .12298584-.1287384 .1329956-.11973572 .14299011-.10673523 .14299011-.08773804 .14299011-.056747438 .115997318-.052734376 .10598755-.052734376 .08299255-.052734376 .049987794-.068740848 .049987794-.11773682 .049987794-.16796875 .09399414-.20507813 .1559906-.20507813 .25898744-.20507813 .3619995-.11373901 .3899994-.00074768069L.48599244 .38136292Z"/>
</defs>
<path transform="matrix(1.00002,0,0,-1,15.003998,121.12)" stroke-width=".19925" stroke-linecap="butt" stroke-miterlimit="10" stroke-linejoin="miter" fill="none" stroke="#7f807f" d="M61.95341 .10889V4.36131M119.3177 .10889V4.36131M176.68199 .10889V4.36131M234.04628 .10889V4.36131"/>
<path transform="matrix(1.00002,0,0,-1,15.003998,121.12)" stroke-width=".19925" stroke-linecap="butt" stroke-miterlimit="10" stroke-linejoin="miter" fill="none" stroke="#7f807f" d="M2.46313 24.58627H6.71512M2.46313 46.93744H6.71512M2.46313 69.2886H6.71512M2.46313 91.63977H6.71512M2.46313 113.99094H6.71512"/>
<path transform="matrix(1.00002,0,0,-1,15.003998,121.12)" stroke-width=".3985" stroke-linecap="butt" stroke-miterlimit="10" stroke-linejoin="miter" fill="none" stroke="#000000" d="M0 2.2351H236.6429"/>
<path transform="matrix(1.00002,0,0,-1,251.65164,118.8849)" d="M1.99252 0-1.19551 1.59401 0 0-1.19551-1.59401"/>
<path transform="matrix(1.00002,0,0,-1,15.003998,121.12)" stroke-width=".3985" stroke-linecap="butt" stroke-miterlimit="10" stroke-linejoin="miter" fill="none" stroke="#000000" d="M4.58914 0V117.5862"/>
<path transform="matrix(0,-1,-1.00002,-0,19.59323,3.5338059)" d="M1.99252 0-1.19551 1.59401 0 0-1.19551-1.59401"/>
<use data-text="0" xlink:href="#font_1_1" transform="matrix(9.962799,0,0,-9.9626,68.10306,130.951)"/>
<use data-text="." xlink:href="#font_2_1" transform="matrix(9.962799,0,0,-9.9626,73.08417,130.951)"/>
<use data-text="2" xlink:href="#font_1_3" transform="matrix(9.962799,0,0,-9.9626,75.85222,130.951)"/>
<use data-text="5" xlink:href="#font_1_5" transform="matrix(9.962799,0,0,-9.9626,80.8336,130.951)"/>
<use data-text="0" xlink:href="#font_1_1" transform="matrix(9.962799,0,0,-9.9626,127.95927,130.951)"/>
<use data-text="." xlink:href="#font_2_1" transform="matrix(9.962799,0,0,-9.9626,132.94037,130.951)"/>
<use data-text="5" xlink:href="#font_1_5" transform="matrix(9.962799,0,0,-9.9626,135.70844,130.951)"/>
<use data-text="0" xlink:href="#font_1_1" transform="matrix(9.962799,0,0,-9.9626,182.83336,130.951)"/>
<use data-text="." xlink:href="#font_2_1" transform="matrix(9.962799,0,0,-9.9626,187.81446,130.951)"/>
<use data-text="7" xlink:href="#font_1_7" transform="matrix(9.962799,0,0,-9.9626,190.58252,130.951)"/>
<use data-text="5" xlink:href="#font_1_5" transform="matrix(9.962799,0,0,-9.9626,195.5639,130.951)"/>
<use data-text="1" xlink:href="#font_1_2" transform="matrix(9.962799,0,0,-9.9626,246.56464,130.951)"/>
<use data-text="0" xlink:href="#font_1_1" transform="matrix(9.962799,0,0,-9.9626,1.2167206,99.744)"/>
<use data-text="." xlink:href="#font_2_1" transform="matrix(9.962799,0,0,-9.9626,6.1978228,99.744)"/>
<use data-text="2" xlink:href="#font_1_3" transform="matrix(9.962799,0,0,-9.9626,8.965881,99.744)"/>
<use data-text="0" xlink:href="#font_1_1" transform="matrix(9.962799,0,0,-9.9626,1.2167206,77.393009)"/>
<use data-text="." xlink:href="#font_2_1" transform="matrix(9.962799,0,0,-9.9626,6.1978228,77.393009)"/>
<use data-text="4" xlink:href="#font_1_4" transform="matrix(9.962799,0,0,-9.9626,8.965881,77.393009)"/>
<use data-text="0" xlink:href="#font_1_1" transform="matrix(9.962799,0,0,-9.9626,1.2167206,55.042)"/>
<use data-text="." xlink:href="#font_2_1" transform="matrix(9.962799,0,0,-9.9626,6.1978228,55.042)"/>
<use data-text="6" xlink:href="#font_1_6" transform="matrix(9.962799,0,0,-9.9626,8.965881,55.042)"/>
<use data-text="0" xlink:href="#font_1_1" transform="matrix(9.962799,0,0,-9.9626,1.2167206,32.690004)"/>
<use data-text="." xlink:href="#font_2_1" transform="matrix(9.962799,0,0,-9.9626,6.1978228,32.690004)"/>
<use data-text="8" xlink:href="#font_1_8" transform="matrix(9.962799,0,0,-9.9626,8.965881,32.690004)"/>
<use data-text="1" xlink:href="#font_1_2" transform="matrix(9.962799,0,0,-9.9626,8.965874,10.3390049)"/>
<path transform="matrix(1.00002,0,0,-1,15.003998,121.12)" stroke-width=".79701" stroke-linecap="butt" stroke-miterlimit="10" stroke-linejoin="miter" fill="none" stroke="#000000" d="M4.58914 2.2351H234.04628"/>
<path transform="matrix(1.00002,0,0,-1,15.003998,121.12)" d="M5.78467 113.99094C5.78467 114.6512 5.2494 115.18646 4.58914 115.18646 3.92886 115.18646 3.3936 114.6512 3.3936 113.99094 3.3936 113.33066 3.92886 112.79541 4.58914 112.79541 5.2494 112.79541 5.78467 113.33066 5.78467 113.99094ZM4.58914 113.99094" fill="#0000b3"/>
<path transform="matrix(1.00002,0,0,-1,15.003998,121.12)" stroke-width=".3985" stroke-linecap="butt" stroke-miterlimit="10" stroke-linejoin="miter" fill="none" stroke="#0000b3" d="M5.78467 113.99094C5.78467 114.6512 5.2494 115.18646 4.58914 115.18646 3.92886 115.18646 3.3936 114.6512 3.3936 113.99094 3.3936 113.33066 3.92886 112.79541 4.58914 112.79541 5.2494 112.79541 5.78467 113.33066 5.78467 113.99094ZM4.58914 113.99094"/>
<path transform="matrix(1.00002,0,0,-1,15.003998,121.12)" d="M28.73038 13.41069C28.73038 14.07095 28.19511 14.60622 27.53485 14.60622 26.87459 14.60622 26.33932 14.07095 26.33932 13.41069 26.33932 12.75043 26.87459 12.21516 27.53485 12.21516 28.19511 12.21516 28.73038 12.75043 28.73038 13.41069ZM27.53485 13.41069" fill="#0000b3"/>
<path transform="matrix(1.00002,0,0,-1,15.003998,121.12)" stroke-width=".3985" stroke-linecap="butt" stroke-miterlimit="10" stroke-linejoin="miter" fill="none" stroke="#0000b3" d="M28.73038 13.41069C28.73038 14.07095 28.19511 14.60622 27.53485 14.60622 26.87459 14.60622 26.33932 14.07095 26.33932 13.41069 26.33932 12.75043 26.87459 12.21516 27.53485 12.21516 28.19511 12.21516 28.73038 12.75043 28.73038 13.41069ZM27.53485 13.41069"/>
<path transform="matrix(1.00002,0,0,-1,15.003998,121.12)" d="M31.27988 14.6524C31.27988 15.31267 30.74461 15.84793 30.08434 15.84793 29.42407 15.84793 28.88881 15.31267 28.88881 14.6524 28.88881 13.99214 29.42407 13.45688 30.08434 13.45688 30.74461 13.45688 31.27988 13.99214 31.27988 14.6524ZM30.08434 14.6524" fill="#0000b3"/>
<path transform="matrix(1.00002,0,0,-1,15.003998,121.12)" stroke-width=".3985" stroke-linecap="butt" stroke-miterlimit="10" stroke-linejoin="miter" fill="none" stroke="#0000b3" d="M31.27988 14.6524C31.27988 15.31267 30.74461 15.84793 30.08434 15.84793 29.42407 15.84793 28.88881 15.31267 28.88881 14.6524 28.88881 13.99214 29.42407 13.45688 30.08434 13.45688 30.74461 13.45688 31.27988 13.99214 31.27988 14.6524ZM30.08434 14.6524"/>
<path transform="matrix(1.00002,0,0,-1,15.003998,121.12)" d="M34.4668 16.20459C34.4668 16.86485 33.93153 17.40012 33.27127 17.40012 32.61101 17.40012 32.07574 16.86485 32.07574 16.20459 32.07574 15.54433 32.61101 15.00906 33.27127 15.00906 33.93153 15.00906 34.4668 15.54433 34.4668 16.20459ZM33.27127 16.20459" fill="#0000b3"/>
<path transform="matrix(1.00002,0,0,-1,15.003998,121.12)" stroke-width=".3985" stroke-linecap="butt" stroke-miterlimit="10" stroke-linejoin="miter" fill="none" stroke="#0000b3" d="M34.4668 16.20459C34.4668 16.86485 33.93153 17.40012 33.27127 17.40012 32.61101 17.40012 32.07574 16.86485 32.07574 16.20459 32.07574 15.54433 32.61101 15.00906 33.27127 15.00906 33.93153 15.00906 34.4668 15.54433 34.4668 16.20459ZM33.27127 16.20459"/>
<path transform="matrix(1.00002,0,0,-1,15.003998,121.12)" d="M38.56424 18.20021C38.56424 18.86047 38.02898 19.39574 37.3687 19.39574 36.70844 19.39574 36.17317 18.86047 36.17317 18.20021 36.17317 17.53995 36.70844 17.00468 37.3687 17.00468 38.02898 17.00468 38.56424 17.53995 38.56424 18.20021ZM37.3687 18.20021" fill="#0000b3"/>
<path transform="matrix(1.00002,0,0,-1,15.003998,121.12)" stroke-width=".3985" stroke-linecap="butt" stroke-miterlimit="10" stroke-linejoin="miter" fill="none" stroke="#0000b3" d="M38.56424 18.20021C38.56424 18.86047 38.02898 19.39574 37.3687 19.39574 36.70844 19.39574 36.17317 18.86047 36.17317 18.20021 36.17317 17.53995 36.70844 17.00468 37.3687 17.00468 38.02898 17.00468 38.56424 17.53995 38.56424 18.20021ZM37.3687 18.20021"/>
<path transform="matrix(1.00002,0,0,-1,15.003998,121.12)" d="M44.0276 20.8611C44.0276 21.52138 43.49234 22.05664 42.83206 22.05664 42.1718 22.05664 41.63654 21.52138 41.63654 20.8611 41.63654 20.20084 42.1718 19.66557 42.83206 19.66557 43.49234 19.66557 44.0276 20.20084 44.0276 20.8611ZM42.83206 20.8611" fill="#0000b3"/>
<path transform="matrix(1.00002,0,0,-1,15.003998,121.12)" stroke-width=".3985" stroke-linecap="butt" stroke-miterlimit="10" stroke-linejoin="miter" fill="none" stroke="#0000b3" d="M44.0276 20.8611C44.0276 21.52138 43.49234 22.05664 42.83206 22.05664 42.1718 22.05664 41.63654 21.52138 41.63654 20.8611 41.63654 20.20084 42.1718 19.66557 42.83206 19.66557 43.49234 19.66557 44.0276 20.20084 44.0276 20.8611ZM42.83206 20.8611"/>
<path transform="matrix(1.00002,0,0,-1,15.003998,121.12)" d="M51.67609 24.58627C51.67609 25.24654 51.14084 25.7818 50.48056 25.7818 49.8203 25.7818 49.28503 25.24654 49.28503 24.58627 49.28503 23.92601 49.8203 23.39075 50.48056 23.39075 51.14084 23.39075 51.67609 23.92601 51.67609 24.58627ZM50.48056 24.58627" fill="#0000b3"/>
<path transform="matrix(1.00002,0,0,-1,15.003998,121.12)" stroke-width=".3985" stroke-linecap="butt" stroke-miterlimit="10" stroke-linejoin="miter" fill="none" stroke="#0000b3" d="M51.67609 24.58627C51.67609 25.24654 51.14084 25.7818 50.48056 25.7818 49.8203 25.7818 49.28503 25.24654 49.28503 24.58627 49.28503 23.92601 49.8203 23.39075 50.48056 23.39075 51.14084 23.39075 51.67609 23.92601 51.67609 24.58627ZM50.48056 24.58627"/>
<path transform="matrix(1.00002,0,0,-1,15.003998,121.12)" d="M56.77509 14.6524C56.77509 15.31267 56.23982 15.84793 55.57954 15.84793 54.91928 15.84793 54.38402 15.31267 54.38402 14.6524 54.38402 13.99214 54.91928 13.45688 55.57954 13.45688 56.23982 13.45688 56.77509 13.99214 56.77509 14.6524ZM55.57954 14.6524" fill="#0000b3"/>
<path transform="matrix(1.00002,0,0,-1,15.003998,121.12)" stroke-width=".3985" stroke-linecap="butt" stroke-miterlimit="10" stroke-linejoin="miter" fill="none" stroke="#0000b3" d="M56.77509 14.6524C56.77509 15.31267 56.23982 15.84793 55.57954 15.84793 54.91928 15.84793 54.38402 15.31267 54.38402 14.6524 54.38402 13.99214 54.91928 13.45688 55.57954 13.45688 56.23982 13.45688 56.77509 13.99214 56.77509 14.6524ZM55.57954 14.6524"/>
<path transform="matrix(1.00002,0,0,-1,15.003998,121.12)" d="M63.14896 30.17407C63.14896 30.83434 62.6137 31.3696 61.95341 31.3696 61.29315 31.3696 60.75789 30.83434 60.75789 30.17407 60.75789 29.5138 61.29315 28.97853 61.95341 28.97853 62.6137 28.97853 63.14896 29.5138 63.14896 30.17407ZM61.95341 30.17407" fill="#0000b3"/>
<path transform="matrix(1.00002,0,0,-1,15.003998,121.12)" stroke-width=".3985" stroke-linecap="butt" stroke-miterlimit="10" stroke-linejoin="miter" fill="none" stroke="#0000b3" d="M63.14896 30.17407C63.14896 30.83434 62.6137 31.3696 61.95341 31.3696 61.29315 31.3696 60.75789 30.83434 60.75789 30.17407 60.75789 29.5138 61.29315 28.97853 61.95341 28.97853 62.6137 28.97853 63.14896 29.5138 63.14896 30.17407ZM61.95341 30.17407"/>
<path transform="matrix(1.00002,0,0,-1,15.003998,121.12)" d="M71.34377 18.20021C71.34377 18.86047 70.8085 19.39574 70.14822 19.39574 69.48796 19.39574 68.9527 18.86047 68.9527 18.20021 68.9527 17.53995 69.48796 17.00468 70.14822 17.00468 70.8085 17.00468 71.34377 17.53995 71.34377 18.20021ZM70.14822 18.20021" fill="#0000b3"/>
<path transform="matrix(1.00002,0,0,-1,15.003998,121.12)" stroke-width=".3985" stroke-linecap="butt" stroke-miterlimit="10" stroke-linejoin="miter" fill="none" stroke="#0000b3" d="M71.34377 18.20021C71.34377 18.86047 70.8085 19.39574 70.14822 19.39574 69.48796 19.39574 68.9527 18.86047 68.9527 18.20021 68.9527 17.53995 69.48796 17.00468 70.14822 17.00468 70.8085 17.00468 71.34377 17.53995 71.34377 18.20021ZM70.14822 18.20021"/>
<path transform="matrix(1.00002,0,0,-1,15.003998,121.12)" d="M74.62181 13.41069C74.62181 14.07095 74.08655 14.60622 73.42628 14.60622 72.766 14.60622 72.23074 14.07095 72.23074 13.41069 72.23074 12.75043 72.766 12.21516 73.42628 12.21516 74.08655 12.21516 74.62181 12.75043 74.62181 13.41069ZM73.42628 13.41069" fill="#0000b3"/>
<path transform="matrix(1.00002,0,0,-1,15.003998,121.12)" stroke-width=".3985" stroke-linecap="butt" stroke-miterlimit="10" stroke-linejoin="miter" fill="none" stroke="#0000b3" d="M74.62181 13.41069C74.62181 14.07095 74.08655 14.60622 73.42628 14.60622 72.766 14.60622 72.23074 14.07095 72.23074 13.41069 72.23074 12.75043 72.766 12.21516 73.42628 12.21516 74.08655 12.21516 74.62181 12.75043 74.62181 13.41069ZM73.42628 13.41069"/>
<path transform="matrix(1.00002,0,0,-1,15.003998,121.12)" d="M82.2703 39.48701C82.2703 40.14728 81.73503 40.68254 81.07475 40.68254 80.41449 40.68254 79.87923 40.14728 79.87923 39.48701 79.87923 38.82674 80.41449 38.29147 81.07475 38.29147 81.73503 38.29147 82.2703 38.82674 82.2703 39.48701ZM81.07475 39.48701" fill="#0000b3"/>
<path transform="matrix(1.00002,0,0,-1,15.003998,121.12)" stroke-width=".3985" stroke-linecap="butt" stroke-miterlimit="10" stroke-linejoin="miter" fill="none" stroke="#0000b3" d="M82.2703 39.48701C82.2703 40.14728 81.73503 40.68254 81.07475 40.68254 80.41449 40.68254 79.87923 40.14728 79.87923 39.48701 79.87923 38.82674 80.41449 38.29147 81.07475 38.29147 81.73503 38.29147 82.2703 38.82674 82.2703 39.48701ZM81.07475 39.48701"/>
<path transform="matrix(1.00002,0,0,-1,15.003998,121.12)" d="M91.83109 16.20459C91.83109 16.86485 91.29582 17.40012 90.63556 17.40012 89.97528 17.40012 89.44003 16.86485 89.44003 16.20459 89.44003 15.54433 89.97528 15.00906 90.63556 15.00906 91.29582 15.00906 91.83109 15.54433 91.83109 16.20459ZM90.63556 16.20459" fill="#0000b3"/>
<path transform="matrix(1.00002,0,0,-1,15.003998,121.12)" stroke-width=".3985" stroke-linecap="butt" stroke-miterlimit="10" stroke-linejoin="miter" fill="none" stroke="#0000b3" d="M91.83109 16.20459C91.83109 16.86485 91.29582 17.40012 90.63556 17.40012 89.97528 17.40012 89.44003 16.86485 89.44003 16.20459 89.44003 15.54433 89.97528 15.00906 90.63556 15.00906 91.29582 15.00906 91.83109 15.54433 91.83109 16.20459ZM90.63556 16.20459"/>
<path transform="matrix(1.00002,0,0,-1,15.003998,121.12)" d="M97.56752 24.58627C97.56752 25.24654 97.03226 25.7818 96.372 25.7818 95.71173 25.7818 95.17647 25.24654 95.17647 24.58627 95.17647 23.92601 95.71173 23.39075 96.372 23.39075 97.03226 23.39075 97.56752 23.92601 97.56752 24.58627ZM96.372 24.58627" fill="#0000b3"/>
<path transform="matrix(1.00002,0,0,-1,15.003998,121.12)" stroke-width=".3985" stroke-linecap="butt" stroke-miterlimit="10" stroke-linejoin="miter" fill="none" stroke="#0000b3" d="M97.56752 24.58627C97.56752 25.24654 97.03226 25.7818 96.372 25.7818 95.71173 25.7818 95.17647 25.24654 95.17647 24.58627 95.17647 23.92601 95.71173 23.39075 96.372 23.39075 97.03226 23.39075 97.56752 23.92601 97.56752 24.58627ZM96.372 24.58627"/>
<path transform="matrix(1.00002,0,0,-1,15.003998,121.12)" d="M104.12334 18.20021C104.12334 18.86047 103.58809 19.39574 102.92781 19.39574 102.26755 19.39574 101.73228 18.86047 101.73228 18.20021 101.73228 17.53995 102.26755 17.00468 102.92781 17.00468 103.58809 17.00468 104.12334 17.53995 104.12334 18.20021ZM102.92781 18.20021" fill="#0000b3"/>
<path transform="matrix(1.00002,0,0,-1,15.003998,121.12)" stroke-width=".3985" stroke-linecap="butt" stroke-miterlimit="10" stroke-linejoin="miter" fill="none" stroke="#0000b3" d="M104.12334 18.20021C104.12334 18.86047 103.58809 19.39574 102.92781 19.39574 102.26755 19.39574 101.73228 18.86047 101.73228 18.20021 101.73228 17.53995 102.26755 17.00468 102.92781 17.00468 103.58809 17.00468 104.12334 17.53995 104.12334 18.20021ZM102.92781 18.20021"/>
<path transform="matrix(1.00002,0,0,-1,15.003998,121.12)" d="M107.76549 14.6524C107.76549 15.31267 107.23024 15.84793 106.56996 15.84793 105.9097 15.84793 105.37444 15.31267 105.37444 14.6524 105.37444 13.99214 105.9097 13.45688 106.56996 13.45688 107.23024 13.45688 107.76549 13.99214 107.76549 14.6524ZM106.56996 14.6524" fill="#0000b3"/>
<path transform="matrix(1.00002,0,0,-1,15.003998,121.12)" stroke-width=".3985" stroke-linecap="butt" stroke-miterlimit="10" stroke-linejoin="miter" fill="none" stroke="#0000b3" d="M107.76549 14.6524C107.76549 15.31267 107.23024 15.84793 106.56996 15.84793 105.9097 15.84793 105.37444 15.31267 105.37444 14.6524 105.37444 13.99214 105.9097 13.45688 106.56996 13.45688 107.23024 13.45688 107.76549 13.99214 107.76549 14.6524ZM106.56996 14.6524"/>
<path transform="matrix(1.00002,0,0,-1,15.003998,121.12)" d="M120.51323 58.11302C120.51323 58.77328 119.97797 59.30855 119.3177 59.30855 118.65744 59.30855 118.12218 58.77328 118.12218 58.11302 118.12218 57.45276 118.65744 56.9175 119.3177 56.9175 119.97797 56.9175 120.51323 57.45276 120.51323 58.11302ZM119.3177 58.11302" fill="#0000b3"/>
<path transform="matrix(1.00002,0,0,-1,15.003998,121.12)" stroke-width=".3985" stroke-linecap="butt" stroke-miterlimit="10" stroke-linejoin="miter" fill="none" stroke="#0000b3" d="M120.51323 58.11302C120.51323 58.77328 119.97797 59.30855 119.3177 59.30855 118.65744 59.30855 118.12218 58.77328 118.12218 58.11302 118.12218 57.45276 118.65744 56.9175 119.3177 56.9175 119.97797 56.9175 120.51323 57.45276 120.51323 58.11302ZM119.3177 58.11302"/>
<path transform="matrix(1.00002,0,0,-1,15.003998,121.12)" d="M133.26096 14.6524C133.26096 15.31267 132.7257 15.84793 132.06543 15.84793 131.40517 15.84793 130.8699 15.31267 130.8699 14.6524 130.8699 13.99214 131.40517 13.45688 132.06543 13.45688 132.7257 13.45688 133.26096 13.99214 133.26096 14.6524ZM132.06543 14.6524" fill="#0000b3"/>
<path transform="matrix(1.00002,0,0,-1,15.003998,121.12)" stroke-width=".3985" stroke-linecap="butt" stroke-miterlimit="10" stroke-linejoin="miter" fill="none" stroke="#0000b3" d="M133.26096 14.6524C133.26096 15.31267 132.7257 15.84793 132.06543 15.84793 131.40517 15.84793 130.8699 15.31267 130.8699 14.6524 130.8699 13.99214 131.40517 13.45688 132.06543 13.45688 132.7257 13.45688 133.26096 13.99214 133.26096 14.6524ZM132.06543 14.6524"/>
<path transform="matrix(1.00002,0,0,-1,15.003998,121.12)" d="M136.9031 18.20021C136.9031 18.86047 136.36785 19.39574 135.70758 19.39574 135.04732 19.39574 134.51206 18.86047 134.51206 18.20021 134.51206 17.53995 135.04732 17.00468 135.70758 17.00468 136.36785 17.00468 136.9031 17.53995 136.9031 18.20021ZM135.70758 18.20021" fill="#0000b3"/>
<path transform="matrix(1.00002,0,0,-1,15.003998,121.12)" stroke-width=".3985" stroke-linecap="butt" stroke-miterlimit="10" stroke-linejoin="miter" fill="none" stroke="#0000b3" d="M136.9031 18.20021C136.9031 18.86047 136.36785 19.39574 135.70758 19.39574 135.04732 19.39574 134.51206 18.86047 134.51206 18.20021 134.51206 17.53995 135.04732 17.00468 135.70758 17.00468 136.36785 17.00468 136.9031 17.53995 136.9031 18.20021ZM135.70758 18.20021"/>
<path transform="matrix(1.00002,0,0,-1,15.003998,121.12)" d="M143.45896 24.58627C143.45896 25.24654 142.92369 25.7818 142.26343 25.7818 141.60315 25.7818 141.06789 25.24654 141.06789 24.58627 141.06789 23.92601 141.60315 23.39075 142.26343 23.39075 142.92369 23.39075 143.45896 23.92601 143.45896 24.58627ZM142.26343 24.58627" fill="#0000b3"/>
<path transform="matrix(1.00002,0,0,-1,15.003998,121.12)" stroke-width=".3985" stroke-linecap="butt" stroke-miterlimit="10" stroke-linejoin="miter" fill="none" stroke="#0000b3" d="M143.45896 24.58627C143.45896 25.24654 142.92369 25.7818 142.26343 25.7818 141.60315 25.7818 141.06789 25.24654 141.06789 24.58627 141.06789 23.92601 141.60315 23.39075 142.26343 23.39075 142.92369 23.39075 143.45896 23.92601 143.45896 24.58627ZM142.26343 24.58627"/>
<path transform="matrix(1.00002,0,0,-1,15.003998,121.12)" d="M149.19538 16.20459C149.19538 16.86485 148.66011 17.40012 147.99985 17.40012 147.33957 17.40012 146.8043 16.86485 146.8043 16.20459 146.8043 15.54433 147.33957 15.00906 147.99985 15.00906 148.66011 15.00906 149.19538 15.54433 149.19538 16.20459ZM147.99985 16.20459" fill="#0000b3"/>
<path transform="matrix(1.00002,0,0,-1,15.003998,121.12)" stroke-width=".3985" stroke-linecap="butt" stroke-miterlimit="10" stroke-linejoin="miter" fill="none" stroke="#0000b3" d="M149.19538 16.20459C149.19538 16.86485 148.66011 17.40012 147.99985 17.40012 147.33957 17.40012 146.8043 16.86485 146.8043 16.20459 146.8043 15.54433 147.33957 15.00906 147.99985 15.00906 148.66011 15.00906 149.19538 15.54433 149.19538 16.20459ZM147.99985 16.20459"/>
<path transform="matrix(1.00002,0,0,-1,15.003998,121.12)" d="M158.75617 39.48701C158.75617 40.14728 158.2209 40.68254 157.56064 40.68254 156.90038 40.68254 156.36511 40.14728 156.36511 39.48701 156.36511 38.82674 156.90038 38.29147 157.56064 38.29147 158.2209 38.29147 158.75617 38.82674 158.75617 39.48701ZM157.56064 39.48701" fill="#0000b3"/>
<path transform="matrix(1.00002,0,0,-1,15.003998,121.12)" stroke-width=".3985" stroke-linecap="butt" stroke-miterlimit="10" stroke-linejoin="miter" fill="none" stroke="#0000b3" d="M158.75617 39.48701C158.75617 40.14728 158.2209 40.68254 157.56064 40.68254 156.90038 40.68254 156.36511 40.14728 156.36511 39.48701 156.36511 38.82674 156.90038 38.29147 157.56064 38.29147 158.2209 38.29147 158.75617 38.82674 158.75617 39.48701ZM157.56064 39.48701"/>
<path transform="matrix(1.00002,0,0,-1,15.003998,121.12)" d="M166.40467 13.41069C166.40467 14.07095 165.8694 14.60622 165.20914 14.60622 164.54888 14.60622 164.01361 14.07095 164.01361 13.41069 164.01361 12.75043 164.54888 12.21516 165.20914 12.21516 165.8694 12.21516 166.40467 12.75043 166.40467 13.41069ZM165.20914 13.41069" fill="#0000b3"/>
<path transform="matrix(1.00002,0,0,-1,15.003998,121.12)" stroke-width=".3985" stroke-linecap="butt" stroke-miterlimit="10" stroke-linejoin="miter" fill="none" stroke="#0000b3" d="M166.40467 13.41069C166.40467 14.07095 165.8694 14.60622 165.20914 14.60622 164.54888 14.60622 164.01361 14.07095 164.01361 13.41069 164.01361 12.75043 164.54888 12.21516 165.20914 12.21516 165.8694 12.21516 166.40467 12.75043 166.40467 13.41069ZM165.20914 13.41069"/>
<path transform="matrix(1.00002,0,0,-1,15.003998,121.12)" d="M169.6827 18.20021C169.6827 18.86047 169.14743 19.39574 168.48717 19.39574 167.8269 19.39574 167.29164 18.86047 167.29164 18.20021 167.29164 17.53995 167.8269 17.00468 168.48717 17.00468 169.14743 17.00468 169.6827 17.53995 169.6827 18.20021ZM168.48717 18.20021" fill="#0000b3"/>
<path transform="matrix(1.00002,0,0,-1,15.003998,121.12)" stroke-width=".3985" stroke-linecap="butt" stroke-miterlimit="10" stroke-linejoin="miter" fill="none" stroke="#0000b3" d="M169.6827 18.20021C169.6827 18.86047 169.14743 19.39574 168.48717 19.39574 167.8269 19.39574 167.29164 18.86047 167.29164 18.20021 167.29164 17.53995 167.8269 17.00468 168.48717 17.00468 169.14743 17.00468 169.6827 17.53995 169.6827 18.20021ZM168.48717 18.20021"/>
<path transform="matrix(1.00002,0,0,-1,15.003998,121.12)" d="M177.87752 30.17407C177.87752 30.83434 177.34226 31.3696 176.68199 31.3696 176.02173 31.3696 175.48647 30.83434 175.48647 30.17407 175.48647 29.5138 176.02173 28.97853 176.68199 28.97853 177.34226 28.97853 177.87752 29.5138 177.87752 30.17407ZM176.68199 30.17407" fill="#0000b3"/>
<path transform="matrix(1.00002,0,0,-1,15.003998,121.12)" stroke-width=".3985" stroke-linecap="butt" stroke-miterlimit="10" stroke-linejoin="miter" fill="none" stroke="#0000b3" d="M177.87752 30.17407C177.87752 30.83434 177.34226 31.3696 176.68199 31.3696 176.02173 31.3696 175.48647 30.83434 175.48647 30.17407 175.48647 29.5138 176.02173 28.97853 176.68199 28.97853 177.34226 28.97853 177.87752 29.5138 177.87752 30.17407ZM176.68199 30.17407"/>
<path transform="matrix(1.00002,0,0,-1,15.003998,121.12)" d="M184.25138 14.6524C184.25138 15.31267 183.71611 15.84793 183.05585 15.84793 182.39559 15.84793 181.86032 15.31267 181.86032 14.6524 181.86032 13.99214 182.39559 13.45688 183.05585 13.45688 183.71611 13.45688 184.25138 13.99214 184.25138 14.6524ZM183.05585 14.6524" fill="#0000b3"/>
<path transform="matrix(1.00002,0,0,-1,15.003998,121.12)" stroke-width=".3985" stroke-linecap="butt" stroke-miterlimit="10" stroke-linejoin="miter" fill="none" stroke="#0000b3" d="M184.25138 14.6524C184.25138 15.31267 183.71611 15.84793 183.05585 15.84793 182.39559 15.84793 181.86032 15.31267 181.86032 14.6524 181.86032 13.99214 182.39559 13.45688 183.05585 13.45688 183.71611 13.45688 184.25138 13.99214 184.25138 14.6524ZM183.05585 14.6524"/>
<path transform="matrix(1.00002,0,0,-1,15.003998,121.12)" d="M189.35037 24.58627C189.35037 25.24654 188.81511 25.7818 188.15485 25.7818 187.49459 25.7818 186.95932 25.24654 186.95932 24.58627 186.95932 23.92601 187.49459 23.39075 188.15485 23.39075 188.81511 23.39075 189.35037 23.92601 189.35037 24.58627ZM188.15485 24.58627" fill="#0000b3"/>
<path transform="matrix(1.00002,0,0,-1,15.003998,121.12)" stroke-width=".3985" stroke-linecap="butt" stroke-miterlimit="10" stroke-linejoin="miter" fill="none" stroke="#0000b3" d="M189.35037 24.58627C189.35037 25.24654 188.81511 25.7818 188.15485 25.7818 187.49459 25.7818 186.95932 25.24654 186.95932 24.58627 186.95932 23.92601 187.49459 23.39075 188.15485 23.39075 188.81511 23.39075 189.35037 23.92601 189.35037 24.58627ZM188.15485 24.58627"/>
<path transform="matrix(1.00002,0,0,-1,15.003998,121.12)" d="M196.99886 20.8611C196.99886 21.52138 196.4636 22.05664 195.80333 22.05664 195.14307 22.05664 194.6078 21.52138 194.6078 20.8611 194.6078 20.20084 195.14307 19.66557 195.80333 19.66557 196.4636 19.66557 196.99886 20.20084 196.99886 20.8611ZM195.80333 20.8611" fill="#0000b3"/>
<path transform="matrix(1.00002,0,0,-1,15.003998,121.12)" stroke-width=".3985" stroke-linecap="butt" stroke-miterlimit="10" stroke-linejoin="miter" fill="none" stroke="#0000b3" d="M196.99886 20.8611C196.99886 21.52138 196.4636 22.05664 195.80333 22.05664 195.14307 22.05664 194.6078 21.52138 194.6078 20.8611 194.6078 20.20084 195.14307 19.66557 195.80333 19.66557 196.4636 19.66557 196.99886 20.20084 196.99886 20.8611ZM195.80333 20.8611"/>
<path transform="matrix(1.00002,0,0,-1,15.003998,121.12)" d="M202.46222 18.20021C202.46222 18.86047 201.92696 19.39574 201.2667 19.39574 200.60643 19.39574 200.07117 18.86047 200.07117 18.20021 200.07117 17.53995 200.60643 17.00468 201.2667 17.00468 201.92696 17.00468 202.46222 17.53995 202.46222 18.20021ZM201.2667 18.20021" fill="#0000b3"/>
<path transform="matrix(1.00002,0,0,-1,15.003998,121.12)" stroke-width=".3985" stroke-linecap="butt" stroke-miterlimit="10" stroke-linejoin="miter" fill="none" stroke="#0000b3" d="M202.46222 18.20021C202.46222 18.86047 201.92696 19.39574 201.2667 19.39574 200.60643 19.39574 200.07117 18.86047 200.07117 18.20021 200.07117 17.53995 200.60643 17.00468 201.2667 17.00468 201.92696 17.00468 202.46222 17.53995 202.46222 18.20021ZM201.2667 18.20021"/>
<path transform="matrix(1.00002,0,0,-1,15.003998,121.12)" d="M206.55966 16.20459C206.55966 16.86485 206.0244 17.40012 205.36412 17.40012 204.70386 17.40012 204.1686 16.86485 204.1686 16.20459 204.1686 15.54433 204.70386 15.00906 205.36412 15.00906 206.0244 15.00906 206.55966 15.54433 206.55966 16.20459ZM205.36412 16.20459" fill="#0000b3"/>
<path transform="matrix(1.00002,0,0,-1,15.003998,121.12)" stroke-width=".3985" stroke-linecap="butt" stroke-miterlimit="10" stroke-linejoin="miter" fill="none" stroke="#0000b3" d="M206.55966 16.20459C206.55966 16.86485 206.0244 17.40012 205.36412 17.40012 204.70386 17.40012 204.1686 16.86485 204.1686 16.20459 204.1686 15.54433 204.70386 15.00906 205.36412 15.00906 206.0244 15.00906 206.55966 15.54433 206.55966 16.20459ZM205.36412 16.20459"/>
<path transform="matrix(1.00002,0,0,-1,15.003998,121.12)" d="M209.74658 14.6524C209.74658 15.31267 209.21132 15.84793 208.55106 15.84793 207.8908 15.84793 207.35553 15.31267 207.35553 14.6524 207.35553 13.99214 207.8908 13.45688 208.55106 13.45688 209.21132 13.45688 209.74658 13.99214 209.74658 14.6524ZM208.55106 14.6524" fill="#0000b3"/>
<path transform="matrix(1.00002,0,0,-1,15.003998,121.12)" stroke-width=".3985" stroke-linecap="butt" stroke-miterlimit="10" stroke-linejoin="miter" fill="none" stroke="#0000b3" d="M209.74658 14.6524C209.74658 15.31267 209.21132 15.84793 208.55106 15.84793 207.8908 15.84793 207.35553 15.31267 207.35553 14.6524 207.35553 13.99214 207.8908 13.45688 208.55106 13.45688 209.21132 13.45688 209.74658 13.99214 209.74658 14.6524ZM208.55106 14.6524"/>
<path transform="matrix(1.00002,0,0,-1,15.003998,121.12)" d="M212.2961 13.41069C212.2961 14.07095 211.76084 14.60622 211.10056 14.60622 210.44029 14.60622 209.90503 14.07095 209.90503 13.41069 209.90503 12.75043 210.44029 12.21516 211.10056 12.21516 211.76084 12.21516 212.2961 12.75043 212.2961 13.41069ZM211.10056 13.41069" fill="#0000b3"/>
<path transform="matrix(1.00002,0,0,-1,15.003998,121.12)" stroke-width=".3985" stroke-linecap="butt" stroke-miterlimit="10" stroke-linejoin="miter" fill="none" stroke="#0000b3" d="M212.2961 13.41069C212.2961 14.07095 211.76084 14.60622 211.10056 14.60622 210.44029 14.60622 209.90503 14.07095 209.90503 13.41069 209.90503 12.75043 210.44029 12.21516 211.10056 12.21516 211.76084 12.21516 212.2961 12.75043 212.2961 13.41069ZM211.10056 13.41069"/>
<path transform="matrix(1.00002,0,0,-1,15.003998,121.12)" d="M235.2418 113.99094C235.2418 114.6512 234.70655 115.18646 234.04628 115.18646 233.38602 115.18646 232.85076 114.6512 232.85076 113.99094 232.85076 113.33066 233.38602 112.79541 234.04628 112.79541 234.70655 112.79541 235.2418 113.33066 235.2418 113.99094ZM234.04628 113.99094" fill="#0000b3"/>
<path transform="matrix(1.00002,0,0,-1,15.003998,121.12)" stroke-width=".3985" stroke-linecap="butt" stroke-miterlimit="10" stroke-linejoin="miter" fill="none" stroke="#0000b3" d="M235.2418 113.99094C235.2418 114.6512 234.70655 115.18646 234.04628 115.18646 233.38602 115.18646 232.85076 114.6512 232.85076 113.99094 232.85076 113.33066 233.38602 112.79541 234.04628 112.79541 234.70655 112.79541 235.2418 113.33066 235.2418 113.99094ZM234.04628 113.99094"/>
<path transform="matrix(1.00002,0,0,-1,15.003998,121.12)" stroke-width=".3985" stroke-linecap="butt" stroke-miterlimit="10" stroke-linejoin="miter" fill="none" stroke="#0000b3" d=""/>
<use data-text="x" xlink:href="#font_2_2" transform="matrix(9.962799,0,0,-9.9626,244.43059,115.365009)"/>
<use data-text="y" xlink:href="#font_2_3" transform="matrix(9.962799,0,0,-9.9626,23.11316,9.351006)"/>
</svg>
