<svg xmlns="http://www.w3.org/2000/svg" xmlns:xlink="http://www.w3.org/1999/xlink" xmlns:inkscape="http://www.inkscape.org/namespaces/inkscape" version="1.1" width="184" height="128" viewBox="0 0 184 128">
<defs>
<path id="font_1_1" d="M.2939911 .64004519C.2939911 .66400149 .2939911 .6660156 .2709961 .6660156 .20899964 .60227969 .12098694 .60227969 .08898926 .60227969V.57128909C.10899353 .57128909 .16799927 .57128909 .21998596 .5972748V.07902527C.21998596 .042999269 .21699524 .0309906 .1269989 .0309906H.09498596V0C.12998963 .0029907227 .21699524 .0029907227 .25698854 .0029907227 .29699708 .0029907227 .38398744 .0029907227 .4189911 0V.0309906H.3869934C.29699708 .0309906 .2939911 .041992189 .2939911 .07902527V.64004519Z"/>
<path id="font_1_2" d="M.1269989 .07699585 .23298645 .18003845C.3889923 .31811524 .44898988 .3721466 .44898988 .47216798 .44898988 .5860901 .35899354 .6660156 .23699951 .6660156 .12399292 .6660156 .049987794 .57411196 .049987794 .48516847 .049987794 .4291687 .099990848 .4291687 .102996829 .4291687 .11999512 .4291687 .15499878 .44117738 .15499878 .48217774 .15499878 .5081787 .13699341 .5341797 .101989749 .5341797 .09399414 .5341797 .09199524 .5341797 .08898926 .5331726 .11199951 .59806826 .1659851 .63500979 .22399903 .63500979 .31498719 .63500979 .35798646 .5541382 .35798646 .47216798 .35798646 .39215089 .30799867 .31311036 .25299073 .25108338L.06098938 .036987306C.049987794 .025985718 .049987794 .023986817 .049987794 0H.42099L.44898988 .17404175H.42399598C.4189911 .14402771 .4119873 .1000061 .4019928 .084991458 .394989 .07699585 .32899476 .07699585 .30699159 .07699585H.1269989Z"/>
<path id="font_1_3" d="M.2939911 .16503906V.07800293C.2939911 .041992189 .2919922 .0309906 .21798706 .0309906H.19699097V0C.23799134 .0029907227 .2899933 .0029907227 .33198548 .0029907227 .37399293 .0029907227 .4269867 .0029907227 .46798707 0V.0309906H.44699098C.37298585 .0309906 .37098695 .041992189 .37098695 .07800293V.16503906H.47099305V.19602967H.37098695V.65075686C.37098695 .67074587 .37098695 .6767578 .35499574 .6767578 .34599305 .6767578 .34298707 .6767578 .33499146 .66474917L.027999878 .19602967V.16503906H.2939911M.2999878 .19602967H.055999757L.2999878 .5688019V.19602967Z"/>
<path id="font_2_1" d="M.33399964 .30233766C.33999635 .32835389 .36299134 .42037965 .43299867 .42037965 .43798829 .42037965 .46199037 .42037965 .48298646 .40734864 .45498658 .402359 .43499757 .37734986 .43499757 .35334779 .43499757 .33735658 .44599916 .31835938 .47299195 .31835938 .49499513 .31835938 .5269928 .3363495 .5269928 .37635804 .5269928 .42837525 .46798707 .4423828 .43399049 .4423828 .37599183 .4423828 .34098817 .38935853 .32899476 .36634828 .3039856 .43237306 .25 .4423828 .22099304 .4423828 .116989139 .4423828 .05999756 .3133545 .05999756 .28834535 .05999756 .27833558 .069992069 .27833558 .07199097 .27833558 .07998657 .27833558 .08299255 .28033448 .084991458 .28933717 .11898804 .39535523 .18499756 .42037965 .21899414 .42037965 .23799134 .42037965 .272995 .4113617 .272995 .35334779 .272995 .32235719 .2559967 .25532533 .21899414 .11528015 .20298767 .053268434 .16799927 .011245728 .12399292 .011245728 .117996219 .011245728 .09498596 .011245728 .07398987 .024276734 .09899902 .029266358 .12098694 .05027771 .12098694 .07827759 .12098694 .105270389 .09899902 .11328125 .083999637 .11328125 .053985597 .11328125 .0289917 .08728027 .0289917 .055267335 .0289917 .009246826 .07899475-.0107421879 .12298584-.0107421879 .18899536-.0107421879 .22499085 .059280397 .22799683 .0652771 .23999024 .028274537 .27598573-.0107421879 .33599855-.0107421879 .43899537-.0107421879 .49598695 .118270877 .49598695 .14328003 .49598695 .1532898 .4869995 .1532898 .48399354 .1532898 .47499085 .1532898 .47299195 .14929199 .47099305 .14228821 .43798829 .03527832 .36999513 .011245728 .33799745 .011245728 .29899598 .011245728 .2829895 .043273927 .2829895 .07727051 .2829895 .09927368 .2889862 .121276859 .2999878 .16529846L.33399964 .30233766Z"/>
<path id="font_2_2" d="M.48599244 .38136292C.48999024 .39537049 .48999024 .39736939 .48999024 .40437318 .48999024 .42237855 .47599793 .43138124 .46099855 .43138124 .45098878 .43138124 .43499757 .42536927 .42599488 .41036988 .42399598 .405365 .41600038 .37435914 .4119873 .35635377 .40499879 .33035279 .397995 .30334474 .3919983 .27633668L.34700013 .09628296C.34298707 .08126831 .2999878 .011245728 .23399353 .011245728 .18299866 .011245728 .17199707 .055267335 .17199707 .0922699 .17199707 .1382904 .18899536 .20030213 .22299195 .28833009 .23899842 .3293457 .24299622 .3403473 .24299622 .36035157 .24299622 .405365 .21099854 .4423828 .16099549 .4423828 .06599426 .4423828 .0289917 .29733277 .0289917 .28833009 .0289917 .27833558 .038986207 .27833558 .040985109 .27833558 .050994874 .27833558 .051986696 .28033448 .056991579 .29634095 .083999637 .3903656 .12399292 .42037965 .1579895 .42037965 .1659851 .42037965 .18299866 .42037965 .18299866 .3883667 .18299866 .36335755 .17298889 .3373413 .1659851 .31834413 .12599182 .21231079 .10798645 .1552887 .10798645 .10827637 .10798645 .019256592 .17098999-.0107421879 .22999573-.0107421879 .2689972-.0107421879 .30299378 .0062561037 .33099366 .03425598 .31799317-.017745972 .30599977-.06674194 .2659912-.11973572 .23999024-.15385437 .20199585-.18309021 .1559906-.18309021 .14199829-.18309021 .09700012-.18005371 .07998657-.14074707 .09599304-.14074707 .10899353-.14074707 .12298584-.1287384 .1329956-.11973572 .14299011-.10673523 .14299011-.08773804 .14299011-.056747438 .115997318-.052734376 .10598755-.052734376 .08299255-.052734376 .049987794-.068740848 .049987794-.11773682 .049987794-.16796875 .09399414-.20507813 .1559906-.20507813 .25898744-.20507813 .3619995-.11373901 .3899994-.00074768069L.48599244 .38136292Z"/>
</defs>
<path transform="matrix(1.00003,0,0,-1.00003,1.0964966,126.163318)" stroke-width=".19925" stroke-linecap="butt" stroke-miterlimit="10" stroke-linejoin="miter" fill="none" stroke="#7f807f" d="M83.97328 12.22354V16.47533M153.95104 12.22354V16.47533"/>
<path transform="matrix(1.00003,0,0,-1.00003,1.0964966,126.163318)" stroke-width=".19925" stroke-linecap="butt" stroke-miterlimit="10" stroke-linejoin="miter" fill="none" stroke="#7f807f" d="M11.86963 38.2652H16.12143M11.86963 110.01245H16.12143"/>
<path transform="matrix(1.00003,0,0,-1.00003,1.0964966,126.163318)" stroke-width=".3985" stroke-linecap="butt" stroke-miterlimit="10" stroke-linejoin="miter" fill="none" stroke="#000000" d="M0 14.34944H179.94962"/>
<path transform="matrix(1.00003,0,0,-1.00003,181.05152,111.813449)" d="M1.99252 0-1.19551 1.59401 0 0-1.19551-1.59401"/>
<path transform="matrix(1.00003,0,0,-1.00003,1.0964966,126.163318)" stroke-width=".3985" stroke-linecap="butt" stroke-miterlimit="10" stroke-linejoin="miter" fill="none" stroke="#000000" d="M13.99554 4.78314V122.36938"/>
<path transform="matrix(0,-1.00003,-1.00003,-0,15.092457,3.7902604)" d="M1.99252 0-1.19551 1.59401 0 0-1.19551-1.59401"/>
<use data-text="1" xlink:href="#font_1_1" transform="matrix(9.962899,0,0,-9.962899,82.58195,123.88025)"/>
<use data-text="2" xlink:href="#font_1_2" transform="matrix(9.962899,0,0,-9.962899,152.56105,123.88025)"/>
<use data-text="1" xlink:href="#font_1_1" transform="matrix(9.962899,0,0,-9.962899,4.4645998,91.10726)"/>
<use data-text="4" xlink:href="#font_1_3" transform="matrix(9.962899,0,0,-9.962899,4.4645998,19.3581)"/>
<path transform="matrix(1.00003,0,0,-1.00003,1.0964966,126.163318)" stroke-width=".79701" stroke-linecap="butt" stroke-miterlimit="10" stroke-linejoin="miter" fill="none" stroke="#0000ff" d="M13.99554 14.34944 15.40916 14.35919 16.82277 14.38849 18.23639 14.43729 19.65001 14.50558 21.06363 14.59341 22.47726 14.70078 23.89087 14.82765 25.30449 14.97404 26.71812 15.13997 28.13174 15.3254 29.54535 15.53035 30.95898 15.7548 32.3726 15.9988 33.78622 16.26231 35.19984 16.54533 36.61346 16.84789 38.02708 17.16994 39.4407 17.51154 40.85434 17.87263 42.26796 18.25327 43.68156 18.6534 45.0952 19.07306 46.50882 19.51224 47.92244 19.97093 49.33606 20.44914 50.74966 20.94688 52.16328 21.46416 53.57692 22.00092 54.99054 22.55722 56.40414 23.13304 57.81776 23.72836 59.2314 24.34323 60.64502 24.97758 62.05864 25.63147 63.47224 26.30489 64.88588 26.99782 66.2995 27.71027 67.71312 28.44223 69.12675 29.19373 70.54036 29.96472 71.95398 30.75523 73.36761 31.56529 74.78123 32.39485 76.19484 33.24394 77.60846 34.11253 79.0221 35.00064 80.43571 35.90828 81.84933 36.83545 83.26295 37.78212 84.67657 38.74828 86.0902 39.73401 87.50381 40.73924 88.91743 41.76398 90.33104 42.80829 91.74467 43.87209 93.1583 44.9554 94.57191 46.0582 95.98553 47.18057 97.39915 48.32246 98.81277 49.48383 100.2264 50.66476 101.64003 51.86519 103.05363 53.08513 104.46725 54.32462 105.88087 55.58348 107.29451 56.862 108.70813 58.16003 110.12173 59.47758 111.53537 60.81465 112.94899 62.17123 114.36261 63.54733 115.77625 64.94295 117.18985 66.35811 118.60347 67.79276 120.01709 69.24695 121.43073 70.72063 122.84433 72.21387 124.25795 73.7266 125.67157 75.25877 127.08519 76.81055 128.49881 78.38185 129.91243 79.97263 131.32605 81.58296 132.73967 83.21284 134.15329 84.8622 135.56693 86.5311 136.98053 88.2195 138.39415 89.92743 139.80779 91.6549 141.2214 93.40184 142.63501 95.16835 144.04865 96.95435 145.46227 98.75975 146.87589 100.58478 148.2895 102.42937 149.70313 104.29344 151.11675 106.17703 152.53037 108.08015 153.944 110.00282"/>
<path transform="matrix(1.00003,0,0,-1.00003,1.0964966,126.163318)" stroke-width=".79701" stroke-linecap="butt" stroke-miterlimit="10" stroke-linejoin="miter" fill="none" stroke="#ff0000" d="M13.99554 14.34944 19.827 18.33537 25.65843 22.32132 31.4899 26.30727 37.32135 30.2932 43.15282 34.27914 48.98427 38.26509 54.81572 42.25104 60.64717 46.23698 66.47862 50.22292 72.31009 54.20886 78.14154 58.19481 83.973 62.18076 89.80444 66.16666 95.6359 70.15266 101.46736 74.1386 107.29883 78.12453 113.13028 82.11047 118.96172 86.09639 124.79318 90.08234 130.62464 94.06827 136.45609 98.0542 142.28755 102.04015 148.11899 106.02614 153.95046 110.01207"/>
<path transform="matrix(1.00003,0,0,-1.00003,1.0964966,126.163318)" stroke-width=".79701" stroke-linecap="butt" stroke-miterlimit="10" stroke-linejoin="miter" fill="none" stroke="#009900" d="M27.99109 0 32.65622 3.18872 37.32137 6.37746 41.9865 9.5662 46.65163 12.75493 51.31676 15.94366 55.9819 19.1324 60.64703 22.32114 65.31218 25.50987 69.97731 28.69861 74.64246 31.88734 79.30759 35.07607 83.97273 38.26482 88.63786 41.45354 93.30298 44.64226 97.96812 47.83098 102.63327 51.01976 107.2984 54.20848 111.96353 57.3972 116.62868 60.58592 121.29381 63.7747 125.95895 66.96342 130.62409 70.15215 135.28923 73.34087 139.95436 76.52965"/>
<path transform="matrix(1.00003,0,0,-1.00003,1.0964966,126.163318)" d="M15.9881 14.34944C15.9881 15.44992 15.09601 16.342 13.99554 16.342 12.89507 16.342 12.00299 15.44992 12.00299 14.34944 12.00299 13.24898 12.89507 12.35689 13.99554 12.35689 15.09601 12.35689 15.9881 13.24898 15.9881 14.34944ZM13.99554 14.34944" fill="#0000ff"/>
<path transform="matrix(1.00003,0,0,-1.00003,1.0964966,126.163318)" stroke-width=".3985" stroke-linecap="butt" stroke-miterlimit="10" stroke-linejoin="miter" fill="none" stroke="#0000ff" d="M15.9881 14.34944C15.9881 15.44992 15.09601 16.342 13.99554 16.342 12.89507 16.342 12.00299 15.44992 12.00299 14.34944 12.00299 13.24898 12.89507 12.35689 13.99554 12.35689 15.09601 12.35689 15.9881 13.24898 15.9881 14.34944ZM13.99554 14.34944"/>
<path transform="matrix(1.00003,0,0,-1.00003,1.0964966,126.163318)" d="M85.96584 38.2652C85.96584 39.36566 85.07376 40.25775 83.97328 40.25775 82.87282 40.25775 81.98073 39.36566 81.98073 38.2652 81.98073 37.16472 82.87282 36.27264 83.97328 36.27264 85.07376 36.27264 85.96584 37.16472 85.96584 38.2652ZM83.97328 38.2652" fill="#0000ff"/>
<path transform="matrix(1.00003,0,0,-1.00003,1.0964966,126.163318)" stroke-width=".3985" stroke-linecap="butt" stroke-miterlimit="10" stroke-linejoin="miter" fill="none" stroke="#0000ff" d="M85.96584 38.2652C85.96584 39.36566 85.07376 40.25775 83.97328 40.25775 82.87282 40.25775 81.98073 39.36566 81.98073 38.2652 81.98073 37.16472 82.87282 36.27264 83.97328 36.27264 85.07376 36.27264 85.96584 37.16472 85.96584 38.2652ZM83.97328 38.2652"/>
<path transform="matrix(1.00003,0,0,-1.00003,1.0964966,126.163318)" d="M155.94359 110.01245C155.94359 111.11293 155.05152 112.005 153.95104 112.005 152.85057 112.005 151.95848 111.11293 151.95848 110.01245 151.95848 108.91199 152.85057 108.0199 153.95104 108.0199 155.05152 108.0199 155.94359 108.91199 155.94359 110.01245ZM153.95104 110.01245" fill="#0000ff"/>
<path transform="matrix(1.00003,0,0,-1.00003,1.0964966,126.163318)" stroke-width=".3985" stroke-linecap="butt" stroke-miterlimit="10" stroke-linejoin="miter" fill="none" stroke="#0000ff" d="M155.94359 110.01245C155.94359 111.11293 155.05152 112.005 153.95104 112.005 152.85057 112.005 151.95848 111.11293 151.95848 110.01245 151.95848 108.91199 152.85057 108.0199 153.95104 108.0199 155.05152 108.0199 155.94359 108.91199 155.94359 110.01245ZM153.95104 110.01245"/>
<path transform="matrix(1.00003,0,0,-1.00003,1.0964966,126.163318)" stroke-width=".3985" stroke-linecap="butt" stroke-miterlimit="10" stroke-linejoin="miter" fill="none" stroke="#0000ff" d=""/>
<use data-text="x" xlink:href="#font_2_1" transform="matrix(9.962899,0,0,-9.962899,173.82968,108.29378)"/>
<use data-text="y" xlink:href="#font_2_2" transform="matrix(9.962899,0,0,-9.962899,18.612023,9.606812)"/>
</svg>
