<svg xmlns="http://www.w3.org/2000/svg" xmlns:xlink="http://www.w3.org/1999/xlink" xmlns:inkscape="http://www.inkscape.org/namespaces/inkscape" version="1.1" width="156" height="117" viewBox="0 0 156 117">
<defs>
<path id="font_1_1" d="M.6589966 .23046875C.6759949 .23046875 .69400027 .23046875 .69400027 .25045777 .69400027 .27046205 .6759949 .27046205 .6589966 .27046205H.117996219C.100997928 .27046205 .08299255 .27046205 .08299255 .25045777 .08299255 .23046875 .100997928 .23046875 .117996219 .23046875H.6589966Z"/>
<path id="font_2_1" d="M.2939911 .64004519C.2939911 .66400149 .2939911 .6660156 .2709961 .6660156 .20899964 .60227969 .12098694 .60227969 .08898926 .60227969V.57128909C.10899353 .57128909 .16799927 .57128909 .21998596 .5972748V.07902527C.21998596 .042999269 .21699524 .0309906 .1269989 .0309906H.09498596V0C.12998963 .0029907227 .21699524 .0029907227 .25698854 .0029907227 .29699708 .0029907227 .38398744 .0029907227 .4189911 0V.0309906H.3869934C.29699708 .0309906 .2939911 .041992189 .2939911 .07902527V.64004519Z"/>
<path id="font_3_1" d="M.33399964 .30233766C.33999635 .32835389 .36299134 .42037965 .43299867 .42037965 .43798829 .42037965 .46199037 .42037965 .48298646 .40734864 .45498658 .402359 .43499757 .37734986 .43499757 .35334779 .43499757 .33735658 .44599916 .31835938 .47299195 .31835938 .49499513 .31835938 .5269928 .3363495 .5269928 .37635804 .5269928 .42837525 .46798707 .4423828 .43399049 .4423828 .37599183 .4423828 .34098817 .38935853 .32899476 .36634828 .3039856 .43237306 .25 .4423828 .22099304 .4423828 .116989139 .4423828 .05999756 .3133545 .05999756 .28834535 .05999756 .27833558 .069992069 .27833558 .07199097 .27833558 .07998657 .27833558 .08299255 .28033448 .084991458 .28933717 .11898804 .39535523 .18499756 .42037965 .21899414 .42037965 .23799134 .42037965 .272995 .4113617 .272995 .35334779 .272995 .32235719 .2559967 .25532533 .21899414 .11528015 .20298767 .053268434 .16799927 .011245728 .12399292 .011245728 .117996219 .011245728 .09498596 .011245728 .07398987 .024276734 .09899902 .029266358 .12098694 .05027771 .12098694 .07827759 .12098694 .105270389 .09899902 .11328125 .083999637 .11328125 .053985597 .11328125 .0289917 .08728027 .0289917 .055267335 .0289917 .009246826 .07899475-.0107421879 .12298584-.0107421879 .18899536-.0107421879 .22499085 .059280397 .22799683 .0652771 .23999024 .028274537 .27598573-.0107421879 .33599855-.0107421879 .43899537-.0107421879 .49598695 .118270877 .49598695 .14328003 .49598695 .1532898 .4869995 .1532898 .48399354 .1532898 .47499085 .1532898 .47299195 .14929199 .47099305 .14228821 .43798829 .03527832 .36999513 .011245728 .33799745 .011245728 .29899598 .011245728 .2829895 .043273927 .2829895 .07727051 .2829895 .09927368 .2889862 .121276859 .2999878 .16529846L.33399964 .30233766Z"/>
<path id="font_3_2" d="M.48599244 .38136292C.48999024 .39537049 .48999024 .39736939 .48999024 .40437318 .48999024 .42237855 .47599793 .43138124 .46099855 .43138124 .45098878 .43138124 .43499757 .42536927 .42599488 .41036988 .42399598 .405365 .41600038 .37435914 .4119873 .35635377 .40499879 .33035279 .397995 .30334474 .3919983 .27633668L.34700013 .09628296C.34298707 .08126831 .2999878 .011245728 .23399353 .011245728 .18299866 .011245728 .17199707 .055267335 .17199707 .0922699 .17199707 .1382904 .18899536 .20030213 .22299195 .28833009 .23899842 .3293457 .24299622 .3403473 .24299622 .36035157 .24299622 .405365 .21099854 .4423828 .16099549 .4423828 .06599426 .4423828 .0289917 .29733277 .0289917 .28833009 .0289917 .27833558 .038986207 .27833558 .040985109 .27833558 .050994874 .27833558 .051986696 .28033448 .056991579 .29634095 .083999637 .3903656 .12399292 .42037965 .1579895 .42037965 .1659851 .42037965 .18299866 .42037965 .18299866 .3883667 .18299866 .36335755 .17298889 .3373413 .1659851 .31834413 .12599182 .21231079 .10798645 .1552887 .10798645 .10827637 .10798645 .019256592 .17098999-.0107421879 .22999573-.0107421879 .2689972-.0107421879 .30299378 .0062561037 .33099366 .03425598 .31799317-.017745972 .30599977-.06674194 .2659912-.11973572 .23999024-.15385437 .20199585-.18309021 .1559906-.18309021 .14199829-.18309021 .09700012-.18005371 .07998657-.14074707 .09599304-.14074707 .10899353-.14074707 .12298584-.1287384 .1329956-.11973572 .14299011-.10673523 .14299011-.08773804 .14299011-.056747438 .115997318-.052734376 .10598755-.052734376 .08299255-.052734376 .049987794-.068740848 .049987794-.11773682 .049987794-.16796875 .09399414-.20507813 .1559906-.20507813 .25898744-.20507813 .3619995-.11373901 .3899994-.00074768069L.48599244 .38136292Z"/>
</defs>
<path transform="matrix(1.00003,0,0,-1,1.0964966,115.707)" stroke-width=".19925" stroke-linecap="butt" stroke-miterlimit="10" stroke-linejoin="miter" fill="none" stroke="#7f807f" d="M21.94193 54.82883V59.08078M131.65155 54.82883V59.08078"/>
<path transform="matrix(1.00003,0,0,-1,1.0964966,115.707)" stroke-width=".19925" stroke-linecap="butt" stroke-miterlimit="10" stroke-linejoin="miter" fill="none" stroke="#7f807f" d="M74.6706 16.2728H78.92287M74.6706 97.63683H78.92287"/>
<path transform="matrix(1.00003,0,0,-1,1.0964966,115.707)" stroke-width=".3985" stroke-linecap="butt" stroke-miterlimit="10" stroke-linejoin="miter" fill="none" stroke="#000000" d="M0 56.95482H151.60097"/>
<path transform="matrix(1.00003,0,0,-1,152.70201,58.752183)" d="M1.99252 0-1.19551 1.59401 0 0-1.19551-1.59401"/>
<path transform="matrix(1.00003,0,0,-1,1.0964966,115.707)" stroke-width=".3985" stroke-linecap="butt" stroke-miterlimit="10" stroke-linejoin="miter" fill="none" stroke="#000000" d="M76.79674 0V111.91711"/>
<path transform="matrix(0,-1,-1.00003,-0,77.89554,3.789894)" d="M1.99252 0-1.19551 1.59401 0 0-1.19551-1.59401"/>
<use data-text="&#x2212;" xlink:href="#font_1_1" transform="matrix(9.962899,0,0,-9.9626,16.673966,70.818)"/>
<use data-text="1" xlink:href="#font_2_1" transform="matrix(9.962899,0,0,-9.9626,24.423195,70.818)"/>
<use data-text="1" xlink:href="#font_2_1" transform="matrix(9.962899,0,0,-9.9626,130.26137,70.818)"/>
<use data-text="&#x2212;" xlink:href="#font_1_1" transform="matrix(9.962899,0,0,-9.9626,59.519254,102.229007)"/>
<use data-text="1" xlink:href="#font_2_1" transform="matrix(9.962899,0,0,-9.9626,67.26848,102.229007)"/>
<use data-text="1" xlink:href="#font_2_1" transform="matrix(9.962899,0,0,-9.9626,67.26749,21.279999)"/>
<path transform="matrix(1.00003,0,0,-1,1.0964966,115.707)" stroke-width=".79701" stroke-linecap="butt" stroke-miterlimit="10" stroke-linejoin="miter" fill="none" stroke="#0000ff" d="M10.97096 16.2728H13.7137 16.45644 19.19917 21.94193 24.68466 27.4274 30.17014 32.91289 35.65562 38.39836 41.14111 43.88385 46.62659 49.36932 52.11208 54.85481 57.59755 60.34029 63.08304 65.82578 68.56851 71.31126 74.054 76.79674"/>
<path transform="matrix(1.00003,0,0,-1,1.0964966,115.707)" stroke-width=".79701" stroke-linecap="butt" stroke-miterlimit="10" stroke-linejoin="miter" fill="none" stroke="#0000ff" d="M76.79674 97.63683H79.53947 82.28223 85.02496 87.7677 90.51044 93.25319 95.99593 98.73866 101.4814 104.22415 106.96689 109.70963 112.45238 115.19511 117.93785 120.68059 123.42334 126.16608 128.90882 131.65155 134.3943 137.13704 139.87978 142.62253"/>
<path transform="matrix(1.00003,0,0,-1,1.0964966,115.707)" stroke-width=".3985" stroke-linecap="butt" stroke-miterlimit="10" stroke-linejoin="miter" fill="none" stroke="#0000ff" d="M79.28743 16.2728C79.28743 17.64838 78.17232 18.76349 76.79674 18.76349 75.42116 18.76349 74.30605 17.64838 74.30605 16.2728 74.30605 14.89722 75.42116 13.7821 76.79674 13.7821 78.17232 13.7821 79.28743 14.89722 79.28743 16.2728ZM76.79674 16.2728"/>
<path transform="matrix(1.00003,0,0,-1,1.0964966,115.707)" stroke-width=".3985" stroke-linecap="butt" stroke-miterlimit="10" stroke-linejoin="miter" fill="none" stroke="#0000ff" d=""/>
<path transform="matrix(1.00003,0,0,-1,1.0964966,115.707)" d="M78.78929 97.63683C78.78929 98.7373 77.89722 99.62938 76.79674 99.62938 75.69627 99.62938 74.80418 98.7373 74.80418 97.63683 74.80418 96.53636 75.69627 95.64427 76.79674 95.64427 77.89722 95.64427 78.78929 96.53636 78.78929 97.63683ZM76.79674 97.63683" fill="#0000ff"/>
<path transform="matrix(1.00003,0,0,-1,1.0964966,115.707)" stroke-width=".3985" stroke-linecap="butt" stroke-miterlimit="10" stroke-linejoin="miter" fill="none" stroke="#0000ff" d="M78.78929 97.63683C78.78929 98.7373 77.89722 99.62938 76.79674 99.62938 75.69627 99.62938 74.80418 98.7373 74.80418 97.63683 74.80418 96.53636 75.69627 95.64427 76.79674 95.64427 77.89722 95.64427 78.78929 96.53636 78.78929 97.63683ZM76.79674 97.63683"/>
<path transform="matrix(1.00003,0,0,-1,1.0964966,115.707)" stroke-width=".3985" stroke-linecap="butt" stroke-miterlimit="10" stroke-linejoin="miter" fill="none" stroke="#0000ff" d=""/>
<use data-text="x" xlink:href="#font_3_1" transform="matrix(9.962899,0,0,-9.9626,145.48084,55.232004)"/>
<use data-text="y" xlink:href="#font_3_2" transform="matrix(9.962899,0,0,-9.9626,81.41591,9.607002)"/>
</svg>
