<svg xmlns="http://www.w3.org/2000/svg" xmlns:xlink="http://www.w3.org/1999/xlink" xmlns:inkscape="http://www.inkscape.org/namespaces/inkscape" version="1.1" width="214" height="141" viewBox="0 0 214 141">
<defs>
<path id="font_1_1" d="M.33499146 .63612368C.33499146 .6630554 .33299256 .6640625 .30499269 .6640625 .24099732 .6014404 .1499939 .6004486 .10899353 .6004486V.5644531C.1329956 .5644531 .19898987 .5644531 .2539978 .592453V.08203125C.2539978 .04899597 .2539978 .035995485 .1539917 .035995485H.115997318V0C.13398743 .0009918213 .25698854 .0039978029 .2939911 .0039978029 .32499696 .0039978029 .45098878 .0009918213 .47299195 0V.035995485H.43499757C.33499146 .035995485 .33499146 .04899597 .33499146 .08203125V.63612368Z"/>
<path id="font_1_3" d="M.272995 .33428956C.35099793 .33428956 .40699769 .2803192 .40699769 .1733551 .40699769 .04940796 .33499146 .012466431 .2769928 .012466431 .23699951 .012466431 .14898682 .0234375 .10699463 .082351688 .1539917 .084350589 .16499329 .11735535 .16499329 .13835144 .16499329 .17034912 .14099121 .19335938 .10998535 .19335938 .08198547 .19335938 .053985597 .17634583 .053985597 .13534546 .053985597 .041412355 .1579895-.01953125 .2789917-.01953125 .41799928-.01953125 .5139923 .07336426 .5139923 .1733551 .5139923 .2513275 .44999696 .32929994 .33999635 .35229493 .44499208 .39024354 .48298646 .4650879 .48298646 .5260773 .48298646 .60505679 .3919983 .6640625 .2809906 .6640625 .16999817 .6640625 .084991458 .61006167 .084991458 .5300751 .084991458 .49606324 .10699463 .47706605 .13699341 .47706605 .16799927 .47706605 .18798828 .5000763 .18798828 .5280762 .18798828 .5570679 .16799927 .57806399 .13699341 .5800781 .17199707 .62405398 .24099732 .63505557 .27799989 .63505557 .32299806 .63505557 .38598634 .6130676 .38598634 .5260773 .38598634 .48406983 .37199403 .43814088 .34599305 .4072113 .31298829 .36927796 .2849884 .3672943 .23498535 .36428834 .20999146 .3623047 .20799256 .3623047 .20298767 .3612976 .20098877 .3612976 .19299317 .3592987 .19299317 .34829713 .19299317 .33428956 .20199585 .33428956 .21899414 .33428956H.272995Z"/>
<path id="font_1_2" d="M.5049896 .18203736H.47099305C.46798707 .16001892 .45799256 .100997928 .44499208 .09098816 .43699647 .084991458 .3600006 .084991458 .34599305 .084991458H.1619873C.2669983 .17803955 .3019867 .20603943 .3619995 .25306703 .43598939 .312088 .5049896 .374115 .5049896 .46914674 .5049896 .5900879 .39898683 .6640625 .2709961 .6640625 .14698792 .6640625 .06298828 .57710269 .06298828 .4851532 .06298828 .43414308 .10598755 .42915345 .115997318 .42915345 .13999939 .42915345 .16899109 .44615174 .16899109 .48214723 .16899109 .5001526 .1619873 .53515627 .10998535 .53515627 .14099121 .6060791 .20899964 .62805178 .2559967 .62805178 .35598756 .62805178 .4079895 .5501404 .4079895 .46914674 .4079895 .38212586 .34599305 .3130951 .31399537 .27708436L.07299805 .038986207C.06298828 .02999878 .06298828 .027999878 .06298828 0H.47499085L.5049896 .18203736Z"/>
<path id="font_2_1" d="M.2939911 .64004519C.2939911 .66400149 .2939911 .6660156 .2709961 .6660156 .20899964 .60227969 .12098694 .60227969 .08898926 .60227969V.57128909C.10899353 .57128909 .16799927 .57128909 .21998596 .5972748V.07902527C.21998596 .042999269 .21699524 .0309906 .1269989 .0309906H.09498596V0C.12998963 .0029907227 .21699524 .0029907227 .25698854 .0029907227 .29699708 .0029907227 .38398744 .0029907227 .4189911 0V.0309906H.3869934C.29699708 .0309906 .2939911 .041992189 .2939911 .07902527V.64004519Z"/>
<path id="font_1_5" d="M.41799928 .29803468C.41799928 .05064392 .29499818 .012466431 .23498535 .012466431 .21299744 .012466431 .1599884 .014465332 .1329956 .045639039 .17399597 .04963684 .1769867 .08363342 .1769867 .09263611 .1769867 .11764526 .1599884 .13964844 .12998963 .13964844 .099990848 .13964844 .08198547 .119644168 .08198547 .09063721 .08198547 .022521973 .13899231-.01953125 .23599243-.01953125 .3789978-.01953125 .5139923 .11564636 .5139923 .32904054 .5139923 .5770569 .4039917 .6640625 .2869873 .6640625 .2539978 .6640625 .18499756 .6590576 .12799073 .60305789 .09399414 .5700531 .053985597 .53105166 .053985597 .4410553 .053985597 .31404115 .15499878 .22003174 .27198792 .22003174 .35198976 .22003174 .394989 .27304078 .41799928 .31803895V.29803468M.2769928 .24804688C.23799134 .24804688 .20098877 .26104737 .17298889 .30703736 .1499939 .34403993 .1499939 .38604737 .1499939 .4410553 .1499939 .49905396 .1499939 .53904727 .1789856 .5790558 .20298767 .61405947 .23599243 .63505557 .28799439 .63505557 .33898927 .63505557 .36898805 .60305789 .3849945 .5770569 .4119873 .53504946 .4149933 .4650421 .4149933 .4300537 .4149933 .30004884 .33999635 .24804688 .2769928 .24804688Z"/>
<path id="font_1_4" d="M.5289917 .1640625V.20005799H.41799928V.64582827C.41799928 .66682437 .41799928 .6738281 .3959961 .6738281 .38398744 .6738281 .37998963 .6738281 .36999513 .65982058L.038986207 .20005799V.1640625H.33299256V.08201599C.33299256 .04800415 .33299256 .035995485 .2519989 .035995485H.22499085V0C.2749939 .0019989014 .33898927 .0039978029 .375 .0039978029 .4119873 .0039978029 .47599793 .0019989014 .526001 0V.035995485H.49899293C.41799928 .035995485 .41799928 .04800415 .41799928 .08201599V.1640625H.5289917M.33999635 .5658722V.20005799H.07598877L.33999635 .5658722Z"/>
<path id="font_3_1" d="M.33399964 .30233766C.33999635 .32835389 .36299134 .42037965 .43299867 .42037965 .43798829 .42037965 .46199037 .42037965 .48298646 .40734864 .45498658 .402359 .43499757 .37734986 .43499757 .35334779 .43499757 .33735658 .44599916 .31835938 .47299195 .31835938 .49499513 .31835938 .5269928 .3363495 .5269928 .37635804 .5269928 .42837525 .46798707 .4423828 .43399049 .4423828 .37599183 .4423828 .34098817 .38935853 .32899476 .36634828 .3039856 .43237306 .25 .4423828 .22099304 .4423828 .116989139 .4423828 .05999756 .3133545 .05999756 .28834535 .05999756 .27833558 .069992069 .27833558 .07199097 .27833558 .07998657 .27833558 .08299255 .28033448 .084991458 .28933717 .11898804 .39535523 .18499756 .42037965 .21899414 .42037965 .23799134 .42037965 .272995 .4113617 .272995 .35334779 .272995 .32235719 .2559967 .25532533 .21899414 .11528015 .20298767 .053268434 .16799927 .011245728 .12399292 .011245728 .117996219 .011245728 .09498596 .011245728 .07398987 .024276734 .09899902 .029266358 .12098694 .05027771 .12098694 .07827759 .12098694 .105270389 .09899902 .11328125 .083999637 .11328125 .053985597 .11328125 .0289917 .08728027 .0289917 .055267335 .0289917 .009246826 .07899475-.0107421879 .12298584-.0107421879 .18899536-.0107421879 .22499085 .059280397 .22799683 .0652771 .23999024 .028274537 .27598573-.0107421879 .33599855-.0107421879 .43899537-.0107421879 .49598695 .118270877 .49598695 .14328003 .49598695 .1532898 .4869995 .1532898 .48399354 .1532898 .47499085 .1532898 .47299195 .14929199 .47099305 .14228821 .43798829 .03527832 .36999513 .011245728 .33799745 .011245728 .29899598 .011245728 .2829895 .043273927 .2829895 .07727051 .2829895 .09927368 .2889862 .121276859 .2999878 .16529846L.33399964 .30233766Z"/>
<path id="font_3_2" d="M.48599244 .38136292C.48999024 .39537049 .48999024 .39736939 .48999024 .40437318 .48999024 .42237855 .47599793 .43138124 .46099855 .43138124 .45098878 .43138124 .43499757 .42536927 .42599488 .41036988 .42399598 .405365 .41600038 .37435914 .4119873 .35635377 .40499879 .33035279 .397995 .30334474 .3919983 .27633668L.34700013 .09628296C.34298707 .08126831 .2999878 .011245728 .23399353 .011245728 .18299866 .011245728 .17199707 .055267335 .17199707 .0922699 .17199707 .1382904 .18899536 .20030213 .22299195 .28833009 .23899842 .3293457 .24299622 .3403473 .24299622 .36035157 .24299622 .405365 .21099854 .4423828 .16099549 .4423828 .06599426 .4423828 .0289917 .29733277 .0289917 .28833009 .0289917 .27833558 .038986207 .27833558 .040985109 .27833558 .050994874 .27833558 .051986696 .28033448 .056991579 .29634095 .083999637 .3903656 .12399292 .42037965 .1579895 .42037965 .1659851 .42037965 .18299866 .42037965 .18299866 .3883667 .18299866 .36335755 .17298889 .3373413 .1659851 .31834413 .12599182 .21231079 .10798645 .1552887 .10798645 .10827637 .10798645 .019256592 .17098999-.0107421879 .22999573-.0107421879 .2689972-.0107421879 .30299378 .0062561037 .33099366 .03425598 .31799317-.017745972 .30599977-.06674194 .2659912-.11973572 .23999024-.15385437 .20199585-.18309021 .1559906-.18309021 .14199829-.18309021 .09700012-.18005371 .07998657-.14074707 .09599304-.14074707 .10899353-.14074707 .12298584-.1287384 .1329956-.11973572 .14299011-.10673523 .14299011-.08773804 .14299011-.056747438 .115997318-.052734376 .10598755-.052734376 .08299255-.052734376 .049987794-.068740848 .049987794-.11773682 .049987794-.16796875 .09399414-.20507813 .1559906-.20507813 .25898744-.20507813 .3619995-.11373901 .3899994-.00074768069L.48599244 .38136292Z"/>
</defs>
<path transform="matrix(1.00002,0,0,-1.00002,2.666771,127.048229)" stroke-width=".19925" stroke-linecap="butt" stroke-miterlimit="10" stroke-linejoin="miter" fill="none" stroke="#7f807f" d="M73.28212 3.31929V7.57184M137.0059 3.31929V7.57184M200.72949 3.31929V7.57184"/>
<path transform="matrix(1.00002,0,0,-1.00002,2.666771,127.048229)" stroke-width=".19925" stroke-linecap="butt" stroke-miterlimit="10" stroke-linejoin="miter" fill="none" stroke="#7f807f" d="M7.4323 17.54683H11.68477M7.4323 53.85063H11.68477M7.4323 114.3571H11.68477"/>
<path transform="matrix(1.00002,0,0,-1.00002,2.666771,127.048229)" stroke-width=".3985" stroke-linecap="butt" stroke-miterlimit="10" stroke-linejoin="miter" fill="none" stroke="#000000" d="M0 5.44557H208.29552"/>
<path transform="matrix(1.00002,0,0,-1.00002,210.96646,121.60255)" d="M1.99252 0-1.19551 1.59401 0 0-1.19551-1.59401"/>
<path transform="matrix(1.00002,0,0,-1.00002,2.666771,127.048229)" stroke-width=".3985" stroke-linecap="butt" stroke-miterlimit="10" stroke-linejoin="miter" fill="none" stroke="#000000" d="M9.55853 0V123.25574"/>
<path transform="matrix(0,-1.00002,-1.00002,-0,12.2254929,3.7900162)" d="M1.99252 0-1.19551 1.59401 0 0-1.19551-1.59401"/>
<use data-text="1" xlink:href="#font_1_1" transform="matrix(6.97394,0,0,-6.97394,73.9652,131.74231)"/>
<path transform="matrix(1.00002,0,0,-1.00002,-21.669716,39.98848)" stroke-width=".3985" stroke-linecap="butt" stroke-miterlimit="10" stroke-linejoin="miter" fill="none" stroke="#000000" d="M95.633-93.184H99.604"/>
<use data-text="3" xlink:href="#font_1_3" transform="matrix(6.97394,0,0,-6.97394,73.9652,139.10047)"/>
<use data-text="2" xlink:href="#font_1_2" transform="matrix(6.97394,0,0,-6.97394,137.69049,131.74231)"/>
<path transform="matrix(1.00002,0,0,-1.00002,42.055566,39.98848)" stroke-width=".3985" stroke-linecap="butt" stroke-miterlimit="10" stroke-linejoin="miter" fill="none" stroke="#000000" d="M95.633-93.184H99.604"/>
<use data-text="3" xlink:href="#font_1_3" transform="matrix(6.97394,0,0,-6.97394,137.69049,139.10047)"/>
<use data-text="1" xlink:href="#font_2_1" transform="matrix(9.962799,0,0,-9.962799,200.90973,133.66936)"/>
<use data-text="1" xlink:href="#font_1_1" transform="matrix(6.97394,0,0,-6.97394,1.4127503,108.06885)"/>
<path transform="matrix(1.00002,0,0,-1.00002,-94.22217,16.315007)" stroke-width=".3985" stroke-linecap="butt" stroke-miterlimit="10" stroke-linejoin="miter" fill="none" stroke="#000000" d="M95.633-93.184H99.604"/>
<use data-text="9" xlink:href="#font_1_5" transform="matrix(6.97394,0,0,-6.97394,1.4127503,115.42699)"/>
<use data-text="4" xlink:href="#font_1_4" transform="matrix(6.97394,0,0,-6.97394,1.4127503,71.764118)"/>
<path transform="matrix(1.00002,0,0,-1.00002,-94.22217,-19.989724)" stroke-width=".3985" stroke-linecap="butt" stroke-miterlimit="10" stroke-linejoin="miter" fill="none" stroke="#000000" d="M95.633-93.184H99.604"/>
<use data-text="9" xlink:href="#font_1_5" transform="matrix(6.97394,0,0,-6.97394,1.4127503,79.12226)"/>
<use data-text="1" xlink:href="#font_2_1" transform="matrix(9.962799,0,0,-9.962799,1.5977478,15.898994)"/>
<path transform="matrix(1.00002,0,0,-1.00002,2.666771,127.048229)" d="M9.55853 5.44557V17.54683H73.28212V5.44557ZM73.28212 17.54683" fill="#ffe8d1"/>
<path transform="matrix(1.00002,0,0,-1.00002,2.666771,127.048229)" stroke-width=".3985" stroke-linecap="butt" stroke-miterlimit="10" stroke-linejoin="miter" fill="none" stroke="#994d00" d="M9.55853 5.44557V17.54683H73.28212V5.44557ZM73.28212 17.54683"/>
<path transform="matrix(1.00002,0,0,-1.00002,2.666771,127.048229)" d="M73.28212 5.44557V53.85063H137.0059V5.44557ZM137.0059 53.85063" fill="#ffe8d1"/>
<path transform="matrix(1.00002,0,0,-1.00002,2.666771,127.048229)" stroke-width=".3985" stroke-linecap="butt" stroke-miterlimit="10" stroke-linejoin="miter" fill="none" stroke="#994d00" d="M73.28212 5.44557V53.85063H137.0059V5.44557ZM137.0059 53.85063"/>
<path transform="matrix(1.00002,0,0,-1.00002,2.666771,127.048229)" d="M137.0059 5.44557V114.3571H200.72949V5.44557ZM200.72949 114.3571" fill="#ffe8d1"/>
<path transform="matrix(1.00002,0,0,-1.00002,2.666771,127.048229)" stroke-width=".3985" stroke-linecap="butt" stroke-miterlimit="10" stroke-linejoin="miter" fill="none" stroke="#994d00" d="M137.0059 5.44557V114.3571H200.72949V5.44557ZM200.72949 114.3571"/>
<path transform="matrix(1.00002,0,0,-1.00002,2.666771,127.048229)" d="M9.55853 5.44557V5.44557H73.28212ZM73.28212 5.44557" fill="#c7c7ff"/>
<path transform="matrix(1.00002,0,0,-1.00002,2.666771,127.048229)" stroke-width=".3985" stroke-linecap="butt" stroke-miterlimit="10" stroke-linejoin="miter" fill="none" stroke="#6666ff" d="M9.55853 5.44557V5.44557H73.28212ZM73.28212 5.44557"/>
<path transform="matrix(1.00002,0,0,-1.00002,2.666771,127.048229)" d="M73.28212 5.44557V17.54683H137.0059V5.44557ZM137.0059 17.54683" fill="#c7c7ff"/>
<path transform="matrix(1.00002,0,0,-1.00002,2.666771,127.048229)" stroke-width=".3985" stroke-linecap="butt" stroke-miterlimit="10" stroke-linejoin="miter" fill="none" stroke="#6666ff" d="M73.28212 5.44557V17.54683H137.0059V5.44557ZM137.0059 17.54683"/>
<path transform="matrix(1.00002,0,0,-1.00002,2.666771,127.048229)" d="M137.0059 5.44557V53.85063H200.72949V5.44557ZM200.72949 53.85063" fill="#c7c7ff"/>
<path transform="matrix(1.00002,0,0,-1.00002,2.666771,127.048229)" stroke-width=".3985" stroke-linecap="butt" stroke-miterlimit="10" stroke-linejoin="miter" fill="none" stroke="#6666ff" d="M137.0059 5.44557V53.85063H200.72949V5.44557ZM200.72949 53.85063"/>
<path transform="matrix(1.00002,0,0,-1.00002,2.666771,127.048229)" stroke-width=".79701" stroke-linecap="butt" stroke-miterlimit="10" stroke-linejoin="miter" fill="none" stroke="#000000" d="M9.55853 5.44557 10.84152 5.45047 12.12453 5.4652 13.40756 5.48972 14.69057 5.52406 15.97356 5.5682 17.25656 5.62218 18.53957 5.68593 19.82257 5.75952 21.10559 5.84291 22.3886 5.93611 23.6716 6.03912 24.9546 6.15198 26.23761 6.2746 27.52061 6.40704 28.80362 6.54932 30.08662 6.70137 31.36963 6.86327 32.65262 7.03497 33.93562 7.21645 35.21866 7.40778 36.50166 7.6089 37.78467 7.81984 39.06766 8.04059 40.35066 8.27115 41.63367 8.51152 42.9167 8.76172 44.19969 9.0217 45.4827 9.2915 46.76569 9.57112 48.04869 9.86057 49.33173 10.15979 50.61472 10.46886 51.89772 10.7877 53.18073 11.11636 54.46373 11.45485 55.74672 11.80315 57.02975 12.16124 58.31276 12.52916 59.59576 12.90688 60.87877 13.29445 62.16176 13.69179 63.4448 14.09894 64.72778 14.51591 66.01079 14.9427 67.29378 15.37929 68.57678 15.8257 69.85979 16.2819 71.14282 16.74794 72.42583 17.22379 73.70882 17.70943 74.99182 18.20488 76.27483 18.71014 77.55786 19.22523 78.84085 19.75014 80.12386 20.28484 81.40686 20.82935 82.68987 21.38367 83.97285 21.94781 85.25587 22.52177 86.53888 23.10553 87.82188 23.6991 89.10489 24.30247 90.38788 24.91565 91.67091 25.53868 92.95392 26.1715 94.23692 26.8141 95.51993 27.46655 96.80292 28.12878 98.08592 28.80086 99.36896 29.48274 100.65196 30.17441 101.93494 30.87592 103.21794 31.5872 104.50095 32.30832 105.78398 33.03926 107.06699 33.77998 108.34998 34.53055 109.63298 35.2909 110.91599 36.06107 112.19899 36.84103 113.48201 37.63084 114.76501 38.43045 116.04802 39.23985 117.33102 40.0591 118.61403 40.88814 119.89702 41.72696 121.18004 42.57564 122.46304 43.43411 123.74605 44.30237 125.02904 45.18047 126.31204 46.06837 127.59508 46.96611 128.87808 47.87364 130.16109 48.79095 131.44408 49.71811 132.72708 50.65506 134.01009 51.60184 135.29312 52.55843 136.57611 53.52481 137.85912 54.501 139.1422 55.48708 140.4251 56.48282 141.70816 57.48853 142.99105 58.50388 144.27414 59.5292 145.55724 60.56433 146.84012 61.60913 148.1232 62.66386 149.40608 63.72827 150.68918 64.80267 151.97228 65.88686 153.25514 66.9807 154.53823 68.0845 155.82112 69.19797 157.1042 70.3214 158.3873 71.45464 159.67017 72.59755 160.95323 73.75038 162.23615 74.91292 163.51924 76.08542 164.80229 77.26772 166.0852 78.45967 167.36827 79.66156 168.65119 80.87317 169.93425 82.0947 171.21733 83.32607 172.50025 84.56708 173.78331 85.81804 175.06623 87.07867 176.34926 88.34927 177.63236 89.62968 178.91524 90.91972 180.19834 92.21979 181.48122 93.52942 182.7643 94.8491 184.0474 96.17859 185.33028 97.51768 186.61338 98.8668 187.89624 100.2255 189.17934 101.59424 190.46242 102.97278 191.74532 104.36092 193.0284 105.7591 194.31128 107.16685 195.59436 108.58466 196.87746 110.01225 198.16034 111.44943 199.44342 112.89667 200.7263 114.35347"/>
<use data-text="x" xlink:href="#font_3_1" transform="matrix(9.962799,0,0,-9.962799,203.74481,118.083049)"/>
<use data-text="y" xlink:href="#font_3_2" transform="matrix(9.962799,0,0,-9.962799,15.745033,9.606873)"/>
</svg>
