<svg xmlns="http://www.w3.org/2000/svg" xmlns:xlink="http://www.w3.org/1999/xlink" xmlns:inkscape="http://www.inkscape.org/namespaces/inkscape" version="1.1" width="167" height="123" viewBox="0 0 167 123">
<defs>
<path id="font_1_1" d="M.6589966 .23046875C.6759949 .23046875 .69400027 .23046875 .69400027 .25045777 .69400027 .27046205 .6759949 .27046205 .6589966 .27046205H.117996219C.100997928 .27046205 .08299255 .27046205 .08299255 .25045777 .08299255 .23046875 .100997928 .23046875 .117996219 .23046875H.6589966Z"/>
<path id="font_2_1" d="M.2939911 .64004519C.2939911 .66400149 .2939911 .6660156 .2709961 .6660156 .20899964 .60227969 .12098694 .60227969 .08898926 .60227969V.57128909C.10899353 .57128909 .16799927 .57128909 .21998596 .5972748V.07902527C.21998596 .042999269 .21699524 .0309906 .1269989 .0309906H.09498596V0C.12998963 .0029907227 .21699524 .0029907227 .25698854 .0029907227 .29699708 .0029907227 .38398744 .0029907227 .4189911 0V.0309906H.3869934C.29699708 .0309906 .2939911 .041992189 .2939911 .07902527V.64004519Z"/>
<clipPath id="clip_3">
<path transform="matrix(1.00008,0,0,-1.00003,1.0966492,121.380168)" d="M0 0H164.93386V119.57875H0Z"/>
</clipPath>
<path id="font_4_1" d="M.33399964 .30233766C.33999635 .32835389 .36299134 .42037965 .43299867 .42037965 .43798829 .42037965 .46199037 .42037965 .48298646 .40734864 .45498658 .402359 .43499757 .37734986 .43499757 .35334779 .43499757 .33735658 .44599916 .31835938 .47299195 .31835938 .49499513 .31835938 .5269928 .3363495 .5269928 .37635804 .5269928 .42837525 .46798707 .4423828 .43399049 .4423828 .37599183 .4423828 .34098817 .38935853 .32899476 .36634828 .3039856 .43237306 .25 .4423828 .22099304 .4423828 .116989139 .4423828 .05999756 .3133545 .05999756 .28834535 .05999756 .27833558 .069992069 .27833558 .07199097 .27833558 .07998657 .27833558 .08299255 .28033448 .084991458 .28933717 .11898804 .39535523 .18499756 .42037965 .21899414 .42037965 .23799134 .42037965 .272995 .4113617 .272995 .35334779 .272995 .32235719 .2559967 .25532533 .21899414 .11528015 .20298767 .053268434 .16799927 .011245728 .12399292 .011245728 .117996219 .011245728 .09498596 .011245728 .07398987 .024276734 .09899902 .029266358 .12098694 .05027771 .12098694 .07827759 .12098694 .105270389 .09899902 .11328125 .083999637 .11328125 .053985597 .11328125 .0289917 .08728027 .0289917 .055267335 .0289917 .009246826 .07899475-.0107421879 .12298584-.0107421879 .18899536-.0107421879 .22499085 .059280397 .22799683 .0652771 .23999024 .028274537 .27598573-.0107421879 .33599855-.0107421879 .43899537-.0107421879 .49598695 .118270877 .49598695 .14328003 .49598695 .1532898 .4869995 .1532898 .48399354 .1532898 .47499085 .1532898 .47299195 .14929199 .47099305 .14228821 .43798829 .03527832 .36999513 .011245728 .33799745 .011245728 .29899598 .011245728 .2829895 .043273927 .2829895 .07727051 .2829895 .09927368 .2889862 .121276859 .2999878 .16529846L.33399964 .30233766Z"/>
<path id="font_4_2" d="M.48599244 .38136292C.48999024 .39537049 .48999024 .39736939 .48999024 .40437318 .48999024 .42237855 .47599793 .43138124 .46099855 .43138124 .45098878 .43138124 .43499757 .42536927 .42599488 .41036988 .42399598 .405365 .41600038 .37435914 .4119873 .35635377 .40499879 .33035279 .397995 .30334474 .3919983 .27633668L.34700013 .09628296C.34298707 .08126831 .2999878 .011245728 .23399353 .011245728 .18299866 .011245728 .17199707 .055267335 .17199707 .0922699 .17199707 .1382904 .18899536 .20030213 .22299195 .28833009 .23899842 .3293457 .24299622 .3403473 .24299622 .36035157 .24299622 .405365 .21099854 .4423828 .16099549 .4423828 .06599426 .4423828 .0289917 .29733277 .0289917 .28833009 .0289917 .27833558 .038986207 .27833558 .040985109 .27833558 .050994874 .27833558 .051986696 .28033448 .056991579 .29634095 .083999637 .3903656 .12399292 .42037965 .1579895 .42037965 .1659851 .42037965 .18299866 .42037965 .18299866 .3883667 .18299866 .36335755 .17298889 .3373413 .1659851 .31834413 .12599182 .21231079 .10798645 .1552887 .10798645 .10827637 .10798645 .019256592 .17098999-.0107421879 .22999573-.0107421879 .2689972-.0107421879 .30299378 .0062561037 .33099366 .03425598 .31799317-.017745972 .30599977-.06674194 .2659912-.11973572 .23999024-.15385437 .20199585-.18309021 .1559906-.18309021 .14199829-.18309021 .09700012-.18005371 .07998657-.14074707 .09599304-.14074707 .10899353-.14074707 .12298584-.1287384 .1329956-.11973572 .14299011-.10673523 .14299011-.08773804 .14299011-.056747438 .115997318-.052734376 .10598755-.052734376 .08299255-.052734376 .049987794-.068740848 .049987794-.11773682 .049987794-.16796875 .09399414-.20507813 .1559906-.20507813 .25898744-.20507813 .3619995-.11373901 .3899994-.00074768069L.48599244 .38136292Z"/>
</defs>
<path transform="matrix(1.00008,0,0,-1.00003,1.0966492,121.380168)" stroke-width=".19925" stroke-linecap="butt" stroke-miterlimit="10" stroke-linejoin="miter" fill="none" stroke="#7f807f" d="M27.48897 57.66325V61.91548M137.44489 57.66325V61.91548"/>
<path transform="matrix(1.00008,0,0,-1.00003,1.0966492,121.380168)" stroke-width=".19925" stroke-linecap="butt" stroke-miterlimit="10" stroke-linejoin="miter" fill="none" stroke="#7f807f" d="M80.34082 26.57304H84.59302M80.34082 93.00569H84.59302"/>
<path transform="matrix(1.00008,0,0,-1.00003,1.0966492,121.380168)" stroke-width=".3985" stroke-linecap="butt" stroke-miterlimit="10" stroke-linejoin="miter" fill="none" stroke="#000000" d="M0 59.78937H162.94133"/>
<path transform="matrix(1.00008,0,0,-1.00003,164.05101,61.588998)" d="M1.99252 0-1.19551 1.59401 0 0-1.19551-1.59401"/>
<path transform="matrix(1.00008,0,0,-1.00003,1.0966492,121.380168)" stroke-width=".3985" stroke-linecap="butt" stroke-miterlimit="10" stroke-linejoin="miter" fill="none" stroke="#000000" d="M82.46692 0V117.58623"/>
<path transform="matrix(0,-1.00003,-1.00008,-0,83.57017,3.7904053)" d="M1.99252 0-1.19551 1.59401 0 0-1.19551-1.59401"/>
<use data-text="&#x2212;" xlink:href="#font_1_1" transform="matrix(9.963397,0,0,-9.962899,22.22234,73.65573)"/>
<use data-text="1" xlink:href="#font_2_1" transform="matrix(9.963397,0,0,-9.962899,29.971966,73.65573)"/>
<use data-text="1" xlink:href="#font_2_1" transform="matrix(9.963397,0,0,-9.962899,136.06143,73.65573)"/>
<use data-text="&#x2212;" xlink:href="#font_1_1" transform="matrix(9.963397,0,0,-9.962899,65.19278,97.60145)"/>
<use data-text="1" xlink:href="#font_2_1" transform="matrix(9.963397,0,0,-9.962899,72.942409,97.60145)"/>
<use data-text="1" xlink:href="#font_2_1" transform="matrix(9.963397,0,0,-9.962899,72.94239,31.582467)"/>
<g clip-path="url(#clip_3)">
<path transform="matrix(1.00008,0,0,-1.00003,1.0966492,121.380168)" stroke-width=".79701" stroke-linecap="butt" stroke-miterlimit="10" stroke-linejoin="miter" fill="none" stroke="#0000ff" d="M16.49338 2.39159 17.15642 4.10486 17.81944 5.78348 18.48248 7.42825 19.14554 9.03932 19.80856 10.61673 20.4716 12.16133 21.13464 13.67323 21.79768 15.1528 22.46072 16.60022 23.12376 18.01614 23.7868 19.40082 24.44984 20.75436 25.11288 22.0775 25.77592 23.3704 26.43896 24.63338 27.102 25.8667 27.76505 27.07094 28.42809 28.24632 29.09113 29.39319 29.75417 30.51195 30.4172 31.60289 31.08025 32.6664 31.74329 33.7028 32.40633 34.71248 33.06935 35.69574 33.7324 36.65297 34.39545 37.5845 35.05847 38.49069 35.72153 39.37187 36.38457 40.22842 37.0476 41.06067 37.71065 41.86897 38.37367 42.65367 39.03673 43.41513 39.69977 44.15369 40.3628 44.86969 41.02585 45.56349 41.68887 46.23546 42.35191 46.88591 43.01497 47.51521 43.67801 48.12372 44.34105 48.71178 45.00407 49.27972 45.66711 49.82793 46.33017 50.35674 46.9932 50.86647 47.65623 51.3575 48.31929 51.8302 48.98232 52.28487 49.64537 52.72191 50.3084 53.14162 50.97144 53.5444 51.63449 53.93056 52.29752 54.30046 52.96056 54.65446 53.6236 54.99289 54.28664 55.31613 54.94968 55.6245 55.61272 55.91837 56.27577 56.19809 56.93881 56.46397 57.60184 56.71642 58.26488 56.95573 58.92792 57.18231 59.59096 57.39647 60.254 57.59857 60.91704 57.78894 61.58008 57.96797 62.2431 58.13597 62.90616 58.29333 63.56921 58.44037 64.23224 58.57742 64.89528 58.70488 65.5583 58.82307 66.22136 58.93234 66.8844 59.03307 67.54742 59.12555 68.21048 59.21017 68.87352 59.28728 69.53656 59.35722 70.1996 59.42036 70.86264 59.47702 71.52568 59.52754 72.18872 59.57233 72.85175 59.61168 73.5148 59.64595 74.17784 59.67552 74.84088 59.70071 75.50392 59.7219 76.16696 59.7394 76.83 59.75356 77.49304 59.76476 78.15608 59.77335 78.81912 59.77966 79.48216 59.78406 80.1452 59.78687 80.80824 59.78845 81.47128 59.78915 82.13432 59.78935 82.79735 59.78937 83.46043 59.78957 84.12341 59.79027 84.78648 59.79187 85.44948 59.79466 86.11256 59.79906 86.77563 59.80534 87.43861 59.81393 88.10168 59.82513 88.76468 59.8393 89.42776 59.85678 90.09082 59.87794 90.75381 59.90312 91.41689 59.93266 92.07986 59.96693 92.74295 60.00627 93.40604 60.05103 94.06902 60.10155 94.73209 60.15817 95.39508 60.22128 96.05817 60.2912 96.72122 60.3683 97.38422 60.45288 98.0473 60.54535 98.71027 60.64604 99.37335 60.7553 100.03642 60.87346 100.69942 61.00087 101.3625 61.13791 102.02547 61.2849 102.68855 61.44223 103.35162 61.6102 104.0146 61.78918 104.67769 61.97954 105.34067 62.18156 106.00375 62.39569 106.66684 62.62225 107.3298 62.86151 107.99289 63.11392 108.65587 63.37975 109.31895 63.65944 109.98203 63.95326 110.645 64.26155 111.30809 64.58476 111.97105 64.92313 112.63416 65.27708 113.29724 65.64697 113.9602 66.03304 114.62329 66.43578 115.28629 66.85541 115.94936 67.2924 116.61243 67.74704 117.2754 68.21964 117.93849 68.71063 118.60147 69.22028 119.26454 69.74904 119.92763 70.29721 120.5906 70.86505 121.2537 71.45308 121.91667 72.06146 122.57974 72.69073 123.24283 73.34116 123.9058 74.01299 124.56888 74.70676 125.23187 75.42264 125.89494 76.16116 126.55803 76.92258 127.22101 77.70714 127.88408 78.51541 128.54708 79.3475 129.21015 80.20403 129.87322 81.08517 130.53621 81.9912 131.19928 82.92271 131.86226 83.87976 132.52535 84.86302 133.18843 85.87265 133.85141 86.90887 134.51448 87.97237 135.17748 89.06313 135.84056 90.18184 136.50362 91.32869 137.16661 92.50386 137.82968 93.70804 138.49266 94.94124 139.15575 96.20416 139.81882 97.49709 140.48181 98.8198 141.14488 100.17355 141.80786 101.55794 142.47095 102.97379 143.13402 104.4213 143.797 105.90059 144.46009 107.41235 145.12306 108.95671 145.78615 110.53423 146.44922 112.14536 147.1122 113.7898 147.77529 115.46854 148.43827 117.18147"/>
<path transform="matrix(1.00008,0,0,-1.00003,1.0966492,121.380168)" stroke-width=".79701" stroke-linecap="butt" stroke-miterlimit="10" stroke-linejoin="miter" fill="none" stroke="#ff0000" d="M16.49338 59.78937H21.99118 27.48897 32.98677 38.48456 43.98236 49.48015 54.97795 60.47574 65.97354 71.47133 76.96913 82.46692 87.96472 93.46251 98.96031 104.4581 109.9559 115.4537 120.95149 126.4493 131.94709 137.44489 142.94268 148.44048"/>
</g>
<use data-text="x" xlink:href="#font_4_1" transform="matrix(9.963397,0,0,-9.962899,156.8291,58.069265)"/>
<use data-text="y" xlink:href="#font_4_2" transform="matrix(9.963397,0,0,-9.962899,87.09053,9.607811)"/>
</svg>
