<svg xmlns="http://www.w3.org/2000/svg" viewBox="0 0 1800 2700" role="img" aria-labelledby="title desc">
  <title>Analysis for Beginners cover preview</title>
  <desc>Front cover concept for a beginner-friendly analysis book by Wai Yan Pong.</desc>
  <defs>
    <linearGradient id="paperShade" x1="0" y1="0" x2="1" y2="1">
      <stop offset="0" stop-color="#f6f0e6"/>
      <stop offset="1" stop-color="#efe7da"/>
    </linearGradient>
    <linearGradient id="panelFill" x1="0.1" y1="0" x2="0.9" y2="1">
      <stop offset="0" stop-color="#163753"/>
      <stop offset="1" stop-color="#0a2236"/>
    </linearGradient>
    <linearGradient id="accent" x1="0" y1="0" x2="1" y2="0">
      <stop offset="0" stop-color="#c7721d"/>
      <stop offset="1" stop-color="#efc06d"/>
    </linearGradient>
    <filter id="softShadow" x="-20%" y="-20%" width="140%" height="140%">
      <feDropShadow dx="0" dy="24" stdDeviation="36" flood-color="#122638" flood-opacity="0.16"/>
    </filter>
    <pattern id="paperGrain" width="160" height="160" patternUnits="userSpaceOnUse">
      <circle cx="18" cy="36" r="1.4" fill="#d9cebd" opacity="0.45"/>
      <circle cx="92" cy="28" r="1.2" fill="#cfc1ae" opacity="0.35"/>
      <circle cx="146" cy="80" r="1.6" fill="#d7cab9" opacity="0.38"/>
      <circle cx="46" cy="118" r="1.1" fill="#ccbda8" opacity="0.32"/>
      <circle cx="114" cy="138" r="1.3" fill="#d9cdbb" opacity="0.3"/>
    </pattern>
    <clipPath id="panelClip">
      <rect x="456" y="964" width="1140" height="1270" rx="54"/>
    </clipPath>
  </defs>

  <rect width="1800" height="2700" fill="url(#paperShade)"/>
  <rect width="1800" height="2700" fill="url(#paperGrain)" opacity="0.55"/>

  <rect x="158" y="206" width="22" height="2288" rx="11" fill="#d88b38"/>
  <rect x="214" y="206" width="5" height="2288" rx="2.5" fill="#243d57" opacity="0.55"/>

  <text x="284" y="360"
        fill="#a66222"
        font-family="'Noto Sans', sans-serif"
        font-size="58"
        letter-spacing="16"
        font-weight="700">WAI YAN PONG</text>

  <text x="280" y="650"
        fill="#10283e"
        font-family="'EB Garamond', 'TeX Gyre Pagella', serif"
        font-size="196"
        font-weight="600">Analysis</text>
  <text x="280" y="830"
        fill="#10283e"
        font-family="'EB Garamond', 'TeX Gyre Pagella', serif"
        font-size="196"
        font-weight="600">for Beginners</text>

  <rect x="278" y="922" width="582" height="6" rx="3" fill="url(#accent)"/>

  <g filter="url(#softShadow)">
    <rect x="456" y="964" width="1140" height="1270" rx="54" fill="url(#panelFill)"/>
  </g>

  <g clip-path="url(#panelClip)">
    <rect x="456" y="964" width="1140" height="1270" rx="54" fill="url(#panelFill)"/>

    <path d="M488 1248 C760 1188, 986 1196, 1228 1204 C1390 1209, 1514 1215, 1632 1220"
          fill="none" stroke="#efc06d" stroke-width="10" stroke-linecap="round" opacity="0.95"/>
    <path d="M502 1376 C700 1442, 852 1478, 998 1496 C1122 1511, 1290 1510, 1650 1494"
          fill="none" stroke="#f5ebdd" stroke-width="5" stroke-linecap="round" opacity="0.7"/>
    <path d="M512 1610 C702 1684, 852 1716, 1016 1726 C1172 1735, 1366 1706, 1662 1632"
          fill="none" stroke="#efc06d" stroke-width="6" stroke-linecap="round" opacity="0.72"/>

    <path d="M570 2048 C782 1886, 946 1774, 1098 1630 C1228 1507, 1338 1356, 1506 1178"
          fill="none" stroke="#f5ebdd" stroke-width="8" stroke-linecap="round" opacity="0.85"/>
    <path d="M650 2128 C854 1952, 1028 1818, 1176 1674 C1324 1531, 1442 1374, 1592 1186"
          fill="none" stroke="#c7721d" stroke-width="5" stroke-linecap="round" opacity="0.82"/>

    <path d="M516 1218 C720 1238, 904 1244, 1100 1242 C1312 1240, 1484 1230, 1668 1210"
          fill="none" stroke="#ffffff" stroke-width="2.5" opacity="0.18"/>
    <path d="M504 1498 C712 1516, 910 1524, 1108 1518 C1322 1510, 1512 1486, 1680 1454"
          fill="none" stroke="#ffffff" stroke-width="2.5" opacity="0.12"/>
    <path d="M548 1768 C752 1778, 948 1772, 1142 1748 C1340 1724, 1500 1686, 1672 1610"
          fill="none" stroke="#ffffff" stroke-width="2.5" opacity="0.1"/>

    <g fill="#f7efe1">
      <circle cx="1388" cy="1212" r="16"/>
      <circle cx="1474" cy="1217" r="12"/>
      <circle cx="1542" cy="1219" r="9"/>
      <circle cx="1600" cy="1220" r="7"/>
      <circle cx="1642" cy="1220" r="5.5"/>
    </g>

    <g fill="#efc06d">
      <circle cx="1372" cy="1498" r="12"/>
      <circle cx="1450" cy="1498" r="9"/>
      <circle cx="1512" cy="1496" r="7"/>
      <circle cx="1560" cy="1495" r="5.5"/>
      <circle cx="1600" cy="1494" r="4.5"/>
    </g>

    <text x="548" y="2288"
          fill="#efc06d"
          font-family="'Noto Sans', sans-serif"
          font-size="34"
          letter-spacing="5"
          font-weight="600"
          opacity="0.9">SEQUENCES  SERIES  CONTINUITY  DIFFERENTIATION  INTEGRATION</text>
  </g>

</svg>
